<?xml version="1.0" encoding="UTF-8"?>
<svg xmlns="http://www.w3.org/2000/svg" xmlns:xlink="http://www.w3.org/1999/xlink" width="600pt" height="450pt" viewBox="0 0 600 450" version="1.1">
<defs>
<g>
<symbol overflow="visible" id="ytNVZoXD0-0">
<path style="stroke:none;" d="M 0.59375 2.125 L 0.59375 -8.46875 L 6.59375 -8.46875 L 6.59375 2.125 Z M 1.265625 1.453125 L 5.9375 1.453125 L 5.9375 -7.78125 L 1.265625 -7.78125 Z M 1.265625 1.453125 "/>
</symbol>
<symbol overflow="visible" id="ytNVZoXD0-1">
<path style="stroke:none;" d="M 1.171875 -8.75 L 2.9375 -8.75 L 5.171875 -2.796875 L 7.421875 -8.75 L 9.1875 -8.75 L 9.1875 0 L 8.03125 0 L 8.03125 -7.6875 L 5.765625 -1.6875 L 4.578125 -1.6875 L 2.328125 -7.6875 L 2.328125 0 L 1.171875 0 Z M 1.171875 -8.75 "/>
</symbol>
<symbol overflow="visible" id="ytNVZoXD0-2">
<path style="stroke:none;" d="M 4.109375 -3.296875 C 3.242188 -3.296875 2.640625 -3.195312 2.296875 -3 C 1.960938 -2.800781 1.796875 -2.460938 1.796875 -1.984375 C 1.796875 -1.597656 1.921875 -1.289062 2.171875 -1.0625 C 2.429688 -0.84375 2.773438 -0.734375 3.203125 -0.734375 C 3.804688 -0.734375 4.285156 -0.941406 4.640625 -1.359375 C 5.003906 -1.785156 5.1875 -2.351562 5.1875 -3.0625 L 5.1875 -3.296875 Z M 6.265625 -3.75 L 6.265625 0 L 5.1875 0 L 5.1875 -1 C 4.9375 -0.601562 4.628906 -0.304688 4.265625 -0.109375 C 3.898438 0.078125 3.453125 0.171875 2.921875 0.171875 C 2.242188 0.171875 1.707031 -0.015625 1.3125 -0.390625 C 0.914062 -0.773438 0.71875 -1.28125 0.71875 -1.90625 C 0.71875 -2.644531 0.960938 -3.203125 1.453125 -3.578125 C 1.953125 -3.953125 2.691406 -4.140625 3.671875 -4.140625 L 5.1875 -4.140625 L 5.1875 -4.25 C 5.1875 -4.75 5.019531 -5.132812 4.6875 -5.40625 C 4.363281 -5.675781 3.910156 -5.8125 3.328125 -5.8125 C 2.953125 -5.8125 2.582031 -5.765625 2.21875 -5.671875 C 1.863281 -5.578125 1.523438 -5.441406 1.203125 -5.265625 L 1.203125 -6.265625 C 1.597656 -6.421875 1.976562 -6.535156 2.34375 -6.609375 C 2.71875 -6.679688 3.082031 -6.71875 3.4375 -6.71875 C 4.382812 -6.71875 5.09375 -6.472656 5.5625 -5.984375 C 6.03125 -5.492188 6.265625 -4.75 6.265625 -3.75 Z M 6.265625 -3.75 "/>
</symbol>
<symbol overflow="visible" id="ytNVZoXD0-3">
<path style="stroke:none;" d="M 1.09375 -9.125 L 2.171875 -9.125 L 2.171875 -3.734375 L 5.390625 -6.5625 L 6.765625 -6.5625 L 3.28125 -3.5 L 6.921875 0 L 5.515625 0 L 2.171875 -3.203125 L 2.171875 0 L 1.09375 0 Z M 1.09375 -9.125 "/>
</symbol>
<symbol overflow="visible" id="ytNVZoXD0-4">
<path style="stroke:none;" d="M 6.75 -3.546875 L 6.75 -3.03125 L 1.78125 -3.03125 C 1.832031 -2.28125 2.054688 -1.710938 2.453125 -1.328125 C 2.859375 -0.941406 3.414062 -0.75 4.125 -0.75 C 4.539062 -0.75 4.941406 -0.796875 5.328125 -0.890625 C 5.722656 -0.992188 6.113281 -1.148438 6.5 -1.359375 L 6.5 -0.328125 C 6.101562 -0.171875 5.703125 -0.0507812 5.296875 0.03125 C 4.890625 0.125 4.476562 0.171875 4.0625 0.171875 C 3.019531 0.171875 2.191406 -0.128906 1.578125 -0.734375 C 0.960938 -1.347656 0.65625 -2.175781 0.65625 -3.21875 C 0.65625 -4.289062 0.945312 -5.140625 1.53125 -5.765625 C 2.113281 -6.398438 2.894531 -6.71875 3.875 -6.71875 C 4.757812 -6.71875 5.457031 -6.429688 5.96875 -5.859375 C 6.488281 -5.296875 6.75 -4.523438 6.75 -3.546875 Z M 5.671875 -3.875 C 5.660156 -4.457031 5.492188 -4.925781 5.171875 -5.28125 C 4.847656 -5.632812 4.421875 -5.8125 3.890625 -5.8125 C 3.285156 -5.8125 2.800781 -5.640625 2.4375 -5.296875 C 2.082031 -4.953125 1.878906 -4.472656 1.828125 -3.859375 Z M 5.671875 -3.875 "/>
</symbol>
<symbol overflow="visible" id="ytNVZoXD0-5">
<path style="stroke:none;" d="M 7.734375 -8.078125 L 7.734375 -6.828125 C 7.328125 -7.203125 6.898438 -7.476562 6.453125 -7.65625 C 6.003906 -7.84375 5.523438 -7.9375 5.015625 -7.9375 C 4.015625 -7.9375 3.25 -7.628906 2.71875 -7.015625 C 2.1875 -6.398438 1.921875 -5.515625 1.921875 -4.359375 C 1.921875 -3.210938 2.1875 -2.332031 2.71875 -1.71875 C 3.25 -1.101562 4.015625 -0.796875 5.015625 -0.796875 C 5.523438 -0.796875 6.003906 -0.890625 6.453125 -1.078125 C 6.898438 -1.265625 7.328125 -1.539062 7.734375 -1.90625 L 7.734375 -0.671875 C 7.316406 -0.390625 6.875 -0.175781 6.40625 -0.03125 C 5.945312 0.101562 5.460938 0.171875 4.953125 0.171875 C 3.617188 0.171875 2.570312 -0.234375 1.8125 -1.046875 C 1.050781 -1.859375 0.671875 -2.960938 0.671875 -4.359375 C 0.671875 -5.765625 1.050781 -6.875 1.8125 -7.6875 C 2.570312 -8.5 3.617188 -8.90625 4.953125 -8.90625 C 5.472656 -8.90625 5.960938 -8.832031 6.421875 -8.6875 C 6.890625 -8.550781 7.328125 -8.347656 7.734375 -8.078125 Z M 7.734375 -8.078125 "/>
</symbol>
<symbol overflow="visible" id="ytNVZoXD0-6">
<path style="stroke:none;" d="M 3.671875 -5.8125 C 3.097656 -5.8125 2.640625 -5.582031 2.296875 -5.125 C 1.960938 -4.675781 1.796875 -4.0625 1.796875 -3.28125 C 1.796875 -2.488281 1.960938 -1.867188 2.296875 -1.421875 C 2.628906 -0.972656 3.085938 -0.75 3.671875 -0.75 C 4.242188 -0.75 4.695312 -0.972656 5.03125 -1.421875 C 5.375 -1.878906 5.546875 -2.5 5.546875 -3.28125 C 5.546875 -4.050781 5.375 -4.664062 5.03125 -5.125 C 4.695312 -5.582031 4.242188 -5.8125 3.671875 -5.8125 Z M 3.671875 -6.71875 C 4.609375 -6.71875 5.34375 -6.410156 5.875 -5.796875 C 6.414062 -5.191406 6.6875 -4.351562 6.6875 -3.28125 C 6.6875 -2.207031 6.414062 -1.363281 5.875 -0.75 C 5.34375 -0.132812 4.609375 0.171875 3.671875 0.171875 C 2.734375 0.171875 1.992188 -0.132812 1.453125 -0.75 C 0.921875 -1.363281 0.65625 -2.207031 0.65625 -3.28125 C 0.65625 -4.351562 0.921875 -5.191406 1.453125 -5.796875 C 1.992188 -6.410156 2.734375 -6.71875 3.671875 -6.71875 Z M 3.671875 -6.71875 "/>
</symbol>
<symbol overflow="visible" id="ytNVZoXD0-7">
<path style="stroke:none;" d="M 4.9375 -5.5625 C 4.8125 -5.625 4.675781 -5.671875 4.53125 -5.703125 C 4.394531 -5.742188 4.238281 -5.765625 4.0625 -5.765625 C 3.457031 -5.765625 2.988281 -5.566406 2.65625 -5.171875 C 2.332031 -4.773438 2.171875 -4.203125 2.171875 -3.453125 L 2.171875 0 L 1.09375 0 L 1.09375 -6.5625 L 2.171875 -6.5625 L 2.171875 -5.546875 C 2.398438 -5.941406 2.695312 -6.234375 3.0625 -6.421875 C 3.425781 -6.617188 3.867188 -6.71875 4.390625 -6.71875 C 4.460938 -6.71875 4.539062 -6.710938 4.625 -6.703125 C 4.71875 -6.691406 4.816406 -6.675781 4.921875 -6.65625 Z M 4.9375 -5.5625 "/>
</symbol>
<symbol overflow="visible" id="ytNVZoXD0-8">
<path style="stroke:none;" d="M 1.28125 -1.484375 L 2.515625 -1.484375 L 2.515625 0 L 1.28125 0 Z M 1.28125 -1.484375 "/>
</symbol>
<symbol overflow="visible" id="ytNVZoXD0-9">
<path style="stroke:none;" d="M 4.109375 -7.578125 L 2.5 -3.234375 L 5.71875 -3.234375 Z M 3.4375 -8.75 L 4.78125 -8.75 L 8.109375 0 L 6.875 0 L 6.078125 -2.25 L 2.140625 -2.25 L 1.34375 0 L 0.09375 0 Z M 3.4375 -8.75 "/>
</symbol>
<symbol overflow="visible" id="ytNVZoXD0-10">
<path style="stroke:none;" d="M 1.015625 -2.59375 L 1.015625 -6.5625 L 2.09375 -6.5625 L 2.09375 -2.625 C 2.09375 -2.007812 2.210938 -1.546875 2.453125 -1.234375 C 2.703125 -0.921875 3.066406 -0.765625 3.546875 -0.765625 C 4.128906 -0.765625 4.585938 -0.945312 4.921875 -1.3125 C 5.265625 -1.6875 5.4375 -2.195312 5.4375 -2.84375 L 5.4375 -6.5625 L 6.515625 -6.5625 L 6.515625 0 L 5.4375 0 L 5.4375 -1.015625 C 5.175781 -0.609375 4.875 -0.304688 4.53125 -0.109375 C 4.1875 0.078125 3.785156 0.171875 3.328125 0.171875 C 2.566406 0.171875 1.988281 -0.0625 1.59375 -0.53125 C 1.207031 -1 1.015625 -1.6875 1.015625 -2.59375 Z M 3.734375 -6.71875 Z M 3.734375 -6.71875 "/>
</symbol>
<symbol overflow="visible" id="ytNVZoXD0-11">
<path style="stroke:none;" d="M 6.234375 -5.296875 C 6.503906 -5.785156 6.828125 -6.144531 7.203125 -6.375 C 7.578125 -6.601562 8.019531 -6.71875 8.53125 -6.71875 C 9.21875 -6.71875 9.742188 -6.476562 10.109375 -6 C 10.484375 -5.519531 10.671875 -4.84375 10.671875 -3.96875 L 10.671875 0 L 9.59375 0 L 9.59375 -3.921875 C 9.59375 -4.554688 9.476562 -5.023438 9.25 -5.328125 C 9.03125 -5.628906 8.691406 -5.78125 8.234375 -5.78125 C 7.671875 -5.78125 7.226562 -5.59375 6.90625 -5.21875 C 6.582031 -4.851562 6.421875 -4.347656 6.421875 -3.703125 L 6.421875 0 L 5.34375 0 L 5.34375 -3.921875 C 5.34375 -4.554688 5.226562 -5.023438 5 -5.328125 C 4.78125 -5.628906 4.4375 -5.78125 3.96875 -5.78125 C 3.414062 -5.78125 2.976562 -5.59375 2.65625 -5.21875 C 2.332031 -4.851562 2.171875 -4.347656 2.171875 -3.703125 L 2.171875 0 L 1.09375 0 L 1.09375 -6.5625 L 2.171875 -6.5625 L 2.171875 -5.546875 C 2.421875 -5.941406 2.71875 -6.234375 3.0625 -6.421875 C 3.40625 -6.617188 3.8125 -6.71875 4.28125 -6.71875 C 4.757812 -6.71875 5.164062 -6.597656 5.5 -6.359375 C 5.832031 -6.117188 6.078125 -5.765625 6.234375 -5.296875 Z M 6.234375 -5.296875 "/>
</symbol>
<symbol overflow="visible" id="ytNVZoXD0-12">
<path style="stroke:none;" d="M 2.203125 -8.421875 L 2.203125 -6.5625 L 4.421875 -6.5625 L 4.421875 -5.71875 L 2.203125 -5.71875 L 2.203125 -2.15625 C 2.203125 -1.625 2.273438 -1.28125 2.421875 -1.125 C 2.566406 -0.976562 2.863281 -0.90625 3.3125 -0.90625 L 4.421875 -0.90625 L 4.421875 0 L 3.3125 0 C 2.476562 0 1.898438 -0.15625 1.578125 -0.46875 C 1.265625 -0.78125 1.109375 -1.34375 1.109375 -2.15625 L 1.109375 -5.71875 L 0.328125 -5.71875 L 0.328125 -6.5625 L 1.109375 -6.5625 L 1.109375 -8.421875 Z M 2.203125 -8.421875 "/>
</symbol>
<symbol overflow="visible" id="ytNVZoXD0-13">
<path style="stroke:none;" d="M 3.71875 -9.109375 C 3.195312 -8.210938 2.804688 -7.320312 2.546875 -6.4375 C 2.296875 -5.5625 2.171875 -4.671875 2.171875 -3.765625 C 2.171875 -2.867188 2.296875 -1.976562 2.546875 -1.09375 C 2.804688 -0.207031 3.195312 0.679688 3.71875 1.578125 L 2.78125 1.578125 C 2.195312 0.660156 1.757812 -0.238281 1.46875 -1.125 C 1.175781 -2.007812 1.03125 -2.890625 1.03125 -3.765625 C 1.03125 -4.640625 1.175781 -5.515625 1.46875 -6.390625 C 1.757812 -7.273438 2.195312 -8.179688 2.78125 -9.109375 Z M 3.71875 -9.109375 "/>
</symbol>
<symbol overflow="visible" id="ytNVZoXD0-14">
<path style="stroke:none;" d="M 1.296875 -8.75 L 5.9375 -8.75 L 5.9375 -7.75 L 2.375 -7.75 L 2.375 -5.609375 C 2.550781 -5.671875 2.722656 -5.710938 2.890625 -5.734375 C 3.066406 -5.765625 3.238281 -5.78125 3.40625 -5.78125 C 4.382812 -5.78125 5.160156 -5.507812 5.734375 -4.96875 C 6.304688 -4.4375 6.59375 -3.71875 6.59375 -2.8125 C 6.59375 -1.863281 6.296875 -1.128906 5.703125 -0.609375 C 5.117188 -0.0859375 4.296875 0.171875 3.234375 0.171875 C 2.859375 0.171875 2.476562 0.140625 2.09375 0.078125 C 1.71875 0.015625 1.328125 -0.078125 0.921875 -0.203125 L 0.921875 -1.390625 C 1.273438 -1.203125 1.640625 -1.0625 2.015625 -0.96875 C 2.390625 -0.875 2.785156 -0.828125 3.203125 -0.828125 C 3.878906 -0.828125 4.414062 -1.003906 4.8125 -1.359375 C 5.207031 -1.710938 5.40625 -2.195312 5.40625 -2.8125 C 5.40625 -3.414062 5.207031 -3.894531 4.8125 -4.25 C 4.414062 -4.601562 3.878906 -4.78125 3.203125 -4.78125 C 2.890625 -4.78125 2.570312 -4.742188 2.25 -4.671875 C 1.9375 -4.609375 1.617188 -4.503906 1.296875 -4.359375 Z M 1.296875 -8.75 "/>
</symbol>
<symbol overflow="visible" id="ytNVZoXD0-15">
<path style="stroke:none;" d="M 1.484375 -1 L 3.421875 -1 L 3.421875 -7.671875 L 1.3125 -7.25 L 1.3125 -8.328125 L 3.40625 -8.75 L 4.59375 -8.75 L 4.59375 -1 L 6.53125 -1 L 6.53125 0 L 1.484375 0 Z M 1.484375 -1 "/>
</symbol>
<symbol overflow="visible" id="ytNVZoXD0-16">
<path style="stroke:none;" d="M 3.8125 -7.96875 C 3.207031 -7.96875 2.75 -7.664062 2.4375 -7.0625 C 2.132812 -6.46875 1.984375 -5.566406 1.984375 -4.359375 C 1.984375 -3.160156 2.132812 -2.257812 2.4375 -1.65625 C 2.75 -1.0625 3.207031 -0.765625 3.8125 -0.765625 C 4.425781 -0.765625 4.882812 -1.0625 5.1875 -1.65625 C 5.5 -2.257812 5.65625 -3.160156 5.65625 -4.359375 C 5.65625 -5.566406 5.5 -6.46875 5.1875 -7.0625 C 4.882812 -7.664062 4.425781 -7.96875 3.8125 -7.96875 Z M 3.8125 -8.90625 C 4.789062 -8.90625 5.539062 -8.515625 6.0625 -7.734375 C 6.582031 -6.960938 6.84375 -5.835938 6.84375 -4.359375 C 6.84375 -2.890625 6.582031 -1.765625 6.0625 -0.984375 C 5.539062 -0.210938 4.789062 0.171875 3.8125 0.171875 C 2.832031 0.171875 2.082031 -0.210938 1.5625 -0.984375 C 1.050781 -1.765625 0.796875 -2.890625 0.796875 -4.359375 C 0.796875 -5.835938 1.050781 -6.960938 1.5625 -7.734375 C 2.082031 -8.515625 2.832031 -8.90625 3.8125 -8.90625 Z M 3.8125 -8.90625 "/>
</symbol>
<symbol overflow="visible" id="ytNVZoXD0-17">
<path style="stroke:none;" d="M 1.125 -6.5625 L 2.203125 -6.5625 L 2.203125 0 L 1.125 0 Z M 1.125 -9.125 L 2.203125 -9.125 L 2.203125 -7.75 L 1.125 -7.75 Z M 1.125 -9.125 "/>
</symbol>
<symbol overflow="visible" id="ytNVZoXD0-18">
<path style="stroke:none;" d="M 6.59375 -3.96875 L 6.59375 0 L 5.515625 0 L 5.515625 -3.921875 C 5.515625 -4.546875 5.390625 -5.007812 5.140625 -5.3125 C 4.898438 -5.625 4.539062 -5.78125 4.0625 -5.78125 C 3.476562 -5.78125 3.015625 -5.59375 2.671875 -5.21875 C 2.335938 -4.851562 2.171875 -4.347656 2.171875 -3.703125 L 2.171875 0 L 1.09375 0 L 1.09375 -6.5625 L 2.171875 -6.5625 L 2.171875 -5.546875 C 2.429688 -5.941406 2.734375 -6.234375 3.078125 -6.421875 C 3.429688 -6.617188 3.835938 -6.71875 4.296875 -6.71875 C 5.046875 -6.71875 5.613281 -6.484375 6 -6.015625 C 6.394531 -5.554688 6.59375 -4.875 6.59375 -3.96875 Z M 6.59375 -3.96875 "/>
</symbol>
<symbol overflow="visible" id="ytNVZoXD1-0">
<path style="stroke:none;" d="M 0.59375 2.125 L 0.59375 -8.46875 L 6.59375 -8.46875 L 6.59375 2.125 Z M 1.265625 1.453125 L 5.9375 1.453125 L 5.9375 -7.78125 L 1.265625 -7.78125 Z M 1.265625 1.453125 "/>
</symbol>
<symbol overflow="visible" id="ytNVZoXD1-1">
<path style="stroke:none;" d="M 1.125 -6.5625 L 2.203125 -6.5625 L 2.203125 0 L 1.125 0 Z M 1.125 -9.125 L 2.203125 -9.125 L 2.203125 -7.75 L 1.125 -7.75 Z M 1.125 -9.125 "/>
</symbol>
<symbol overflow="visible" id="ytNVZoXD2-0">
<path style="stroke:none;" d="M 0.59375 2.125 L 0.59375 -8.46875 L 6.59375 -8.46875 L 6.59375 2.125 Z M 1.265625 1.453125 L 5.9375 1.453125 L 5.9375 -7.78125 L 1.265625 -7.78125 Z M 1.265625 1.453125 "/>
</symbol>
<symbol overflow="visible" id="ytNVZoXD2-1">
<path style="stroke:none;" d="M 2.203125 -8.421875 L 2.203125 -6.5625 L 4.421875 -6.5625 L 4.421875 -5.71875 L 2.203125 -5.71875 L 2.203125 -2.15625 C 2.203125 -1.625 2.273438 -1.28125 2.421875 -1.125 C 2.566406 -0.976562 2.863281 -0.90625 3.3125 -0.90625 L 4.421875 -0.90625 L 4.421875 0 L 3.3125 0 C 2.476562 0 1.898438 -0.15625 1.578125 -0.46875 C 1.265625 -0.78125 1.109375 -1.34375 1.109375 -2.15625 L 1.109375 -5.71875 L 0.328125 -5.71875 L 0.328125 -6.5625 L 1.109375 -6.5625 L 1.109375 -8.421875 Z M 2.203125 -8.421875 "/>
</symbol>
<symbol overflow="visible" id="ytNVZoXD2-2">
<path style="stroke:none;" d="M 1.125 -6.5625 L 2.203125 -6.5625 L 2.203125 0 L 1.125 0 Z M 1.125 -9.125 L 2.203125 -9.125 L 2.203125 -7.75 L 1.125 -7.75 Z M 1.125 -9.125 "/>
</symbol>
<symbol overflow="visible" id="ytNVZoXD2-3">
<path style="stroke:none;" d="M 5.859375 -6.3125 L 5.859375 -5.296875 C 5.546875 -5.472656 5.238281 -5.601562 4.9375 -5.6875 C 4.632812 -5.769531 4.328125 -5.8125 4.015625 -5.8125 C 3.304688 -5.8125 2.757812 -5.585938 2.375 -5.140625 C 1.988281 -4.703125 1.796875 -4.082031 1.796875 -3.28125 C 1.796875 -2.476562 1.988281 -1.851562 2.375 -1.40625 C 2.757812 -0.96875 3.304688 -0.75 4.015625 -0.75 C 4.328125 -0.75 4.632812 -0.789062 4.9375 -0.875 C 5.238281 -0.957031 5.546875 -1.082031 5.859375 -1.25 L 5.859375 -0.25 C 5.554688 -0.113281 5.242188 -0.0078125 4.921875 0.0625 C 4.597656 0.132812 4.253906 0.171875 3.890625 0.171875 C 2.898438 0.171875 2.113281 -0.132812 1.53125 -0.75 C 0.945312 -1.375 0.65625 -2.21875 0.65625 -3.28125 C 0.65625 -4.34375 0.945312 -5.179688 1.53125 -5.796875 C 2.125 -6.410156 2.9375 -6.71875 3.96875 -6.71875 C 4.289062 -6.71875 4.609375 -6.679688 4.921875 -6.609375 C 5.242188 -6.546875 5.554688 -6.445312 5.859375 -6.3125 Z M 5.859375 -6.3125 "/>
</symbol>
<symbol overflow="visible" id="ytNVZoXD2-4">
<path style="stroke:none;" d="M 0.96875 -9.109375 L 1.90625 -9.109375 C 2.488281 -8.179688 2.925781 -7.273438 3.21875 -6.390625 C 3.507812 -5.515625 3.65625 -4.640625 3.65625 -3.765625 C 3.65625 -2.890625 3.507812 -2.007812 3.21875 -1.125 C 2.925781 -0.238281 2.488281 0.660156 1.90625 1.578125 L 0.96875 1.578125 C 1.476562 0.679688 1.863281 -0.207031 2.125 -1.09375 C 2.382812 -1.976562 2.515625 -2.867188 2.515625 -3.765625 C 2.515625 -4.671875 2.382812 -5.5625 2.125 -6.4375 C 1.863281 -7.320312 1.476562 -8.210938 0.96875 -9.109375 Z M 0.96875 -9.109375 "/>
</symbol>
<symbol overflow="visible" id="ytNVZoXD3-0">
<path style="stroke:none;" d="M 0.59375 2.125 L 0.59375 -8.46875 L 6.59375 -8.46875 L 6.59375 2.125 Z M 1.265625 1.453125 L 5.9375 1.453125 L 5.9375 -7.78125 L 1.265625 -7.78125 Z M 1.265625 1.453125 "/>
</symbol>
<symbol overflow="visible" id="ytNVZoXD3-1">
<path style="stroke:none;" d="M 3.8125 -7.96875 C 3.207031 -7.96875 2.75 -7.664062 2.4375 -7.0625 C 2.132812 -6.46875 1.984375 -5.566406 1.984375 -4.359375 C 1.984375 -3.160156 2.132812 -2.257812 2.4375 -1.65625 C 2.75 -1.0625 3.207031 -0.765625 3.8125 -0.765625 C 4.425781 -0.765625 4.882812 -1.0625 5.1875 -1.65625 C 5.5 -2.257812 5.65625 -3.160156 5.65625 -4.359375 C 5.65625 -5.566406 5.5 -6.46875 5.1875 -7.0625 C 4.882812 -7.664062 4.425781 -7.96875 3.8125 -7.96875 Z M 3.8125 -8.90625 C 4.789062 -8.90625 5.539062 -8.515625 6.0625 -7.734375 C 6.582031 -6.960938 6.84375 -5.835938 6.84375 -4.359375 C 6.84375 -2.890625 6.582031 -1.765625 6.0625 -0.984375 C 5.539062 -0.210938 4.789062 0.171875 3.8125 0.171875 C 2.832031 0.171875 2.082031 -0.210938 1.5625 -0.984375 C 1.050781 -1.765625 0.796875 -2.890625 0.796875 -4.359375 C 0.796875 -5.835938 1.050781 -6.960938 1.5625 -7.734375 C 2.082031 -8.515625 2.832031 -8.90625 3.8125 -8.90625 Z M 3.8125 -8.90625 "/>
</symbol>
<symbol overflow="visible" id="ytNVZoXD3-2">
<path style="stroke:none;" d="M 1.296875 -8.75 L 5.9375 -8.75 L 5.9375 -7.75 L 2.375 -7.75 L 2.375 -5.609375 C 2.550781 -5.671875 2.722656 -5.710938 2.890625 -5.734375 C 3.066406 -5.765625 3.238281 -5.78125 3.40625 -5.78125 C 4.382812 -5.78125 5.160156 -5.507812 5.734375 -4.96875 C 6.304688 -4.4375 6.59375 -3.71875 6.59375 -2.8125 C 6.59375 -1.863281 6.296875 -1.128906 5.703125 -0.609375 C 5.117188 -0.0859375 4.296875 0.171875 3.234375 0.171875 C 2.859375 0.171875 2.476562 0.140625 2.09375 0.078125 C 1.71875 0.015625 1.328125 -0.078125 0.921875 -0.203125 L 0.921875 -1.390625 C 1.273438 -1.203125 1.640625 -1.0625 2.015625 -0.96875 C 2.390625 -0.875 2.785156 -0.828125 3.203125 -0.828125 C 3.878906 -0.828125 4.414062 -1.003906 4.8125 -1.359375 C 5.207031 -1.710938 5.40625 -2.195312 5.40625 -2.8125 C 5.40625 -3.414062 5.207031 -3.894531 4.8125 -4.25 C 4.414062 -4.601562 3.878906 -4.78125 3.203125 -4.78125 C 2.890625 -4.78125 2.570312 -4.742188 2.25 -4.671875 C 1.9375 -4.609375 1.617188 -4.503906 1.296875 -4.359375 Z M 1.296875 -8.75 "/>
</symbol>
<symbol overflow="visible" id="ytNVZoXD4-0">
<path style="stroke:none;" d="M 2.125 -0.59375 L -8.46875 -0.59375 L -8.46875 -6.59375 L 2.125 -6.59375 Z M 1.453125 -1.265625 L 1.453125 -5.9375 L -7.78125 -5.9375 L -7.78125 -1.265625 Z M 1.453125 -1.265625 "/>
</symbol>
<symbol overflow="visible" id="ytNVZoXD4-1">
<path style="stroke:none;" d="M -8.75 -1.171875 L -8.75 -2.9375 L -2.796875 -5.171875 L -8.75 -7.421875 L -8.75 -9.1875 L 0 -9.1875 L 0 -8.03125 L -7.6875 -8.03125 L -1.6875 -5.765625 L -1.6875 -4.578125 L -7.6875 -2.328125 L 0 -2.328125 L 0 -1.171875 Z M -8.75 -1.171875 "/>
</symbol>
<symbol overflow="visible" id="ytNVZoXD4-2">
<path style="stroke:none;" d="M -9.125 -1.09375 L -9.125 -2.171875 L -3.734375 -2.171875 L -6.5625 -5.390625 L -6.5625 -6.765625 L -3.5 -3.28125 L 0 -6.921875 L 0 -5.515625 L -3.203125 -2.171875 L 0 -2.171875 L 0 -1.09375 Z M -9.125 -1.09375 "/>
</symbol>
<symbol overflow="visible" id="ytNVZoXD4-3">
<path style="stroke:none;" d="M -5.8125 -3.671875 C -5.8125 -3.097656 -5.582031 -2.640625 -5.125 -2.296875 C -4.675781 -1.960938 -4.0625 -1.796875 -3.28125 -1.796875 C -2.488281 -1.796875 -1.867188 -1.960938 -1.421875 -2.296875 C -0.972656 -2.628906 -0.75 -3.085938 -0.75 -3.671875 C -0.75 -4.242188 -0.972656 -4.695312 -1.421875 -5.03125 C -1.878906 -5.375 -2.5 -5.546875 -3.28125 -5.546875 C -4.050781 -5.546875 -4.664062 -5.375 -5.125 -5.03125 C -5.582031 -4.695312 -5.8125 -4.242188 -5.8125 -3.671875 Z M -6.71875 -3.671875 C -6.71875 -4.609375 -6.410156 -5.34375 -5.796875 -5.875 C -5.191406 -6.414062 -4.351562 -6.6875 -3.28125 -6.6875 C -2.207031 -6.6875 -1.363281 -6.414062 -0.75 -5.875 C -0.132812 -5.34375 0.171875 -4.609375 0.171875 -3.671875 C 0.171875 -2.734375 -0.132812 -1.992188 -0.75 -1.453125 C -1.363281 -0.921875 -2.207031 -0.65625 -3.28125 -0.65625 C -4.351562 -0.65625 -5.191406 -0.921875 -5.796875 -1.453125 C -6.410156 -1.992188 -6.71875 -2.734375 -6.71875 -3.671875 Z M -6.71875 -3.671875 "/>
</symbol>
<symbol overflow="visible" id="ytNVZoXD4-4">
<path style="stroke:none;" d="M -5.5625 -4.9375 C -5.625 -4.8125 -5.671875 -4.675781 -5.703125 -4.53125 C -5.742188 -4.394531 -5.765625 -4.238281 -5.765625 -4.0625 C -5.765625 -3.457031 -5.566406 -2.988281 -5.171875 -2.65625 C -4.773438 -2.332031 -4.203125 -2.171875 -3.453125 -2.171875 L 0 -2.171875 L 0 -1.09375 L -6.5625 -1.09375 L -6.5625 -2.171875 L -5.546875 -2.171875 C -5.941406 -2.398438 -6.234375 -2.695312 -6.421875 -3.0625 C -6.617188 -3.425781 -6.71875 -3.867188 -6.71875 -4.390625 C -6.71875 -4.460938 -6.710938 -4.539062 -6.703125 -4.625 C -6.691406 -4.71875 -6.675781 -4.816406 -6.65625 -4.921875 Z M -5.5625 -4.9375 "/>
</symbol>
<symbol overflow="visible" id="ytNVZoXD4-5">
<path style="stroke:none;" d="M -1.484375 -1.28125 L -1.484375 -2.515625 L 0 -2.515625 L 0 -1.28125 Z M -1.484375 -1.28125 "/>
</symbol>
<symbol overflow="visible" id="ytNVZoXD4-6">
<path style="stroke:none;" d="M -7.578125 -4.109375 L -3.234375 -2.5 L -3.234375 -5.71875 Z M -8.75 -3.4375 L -8.75 -4.78125 L 0 -8.109375 L 0 -6.875 L -2.25 -6.078125 L -2.25 -2.140625 L 0 -1.34375 L 0 -0.09375 Z M -8.75 -3.4375 "/>
</symbol>
<symbol overflow="visible" id="ytNVZoXD5-0">
<path style="stroke:none;" d="M 2.125 -0.59375 L -8.46875 -0.59375 L -8.46875 -6.59375 L 2.125 -6.59375 Z M 1.453125 -1.265625 L 1.453125 -5.9375 L -7.78125 -5.9375 L -7.78125 -1.265625 Z M 1.453125 -1.265625 "/>
</symbol>
<symbol overflow="visible" id="ytNVZoXD5-1">
<path style="stroke:none;" d="M -3.296875 -4.109375 C -3.296875 -3.242188 -3.195312 -2.640625 -3 -2.296875 C -2.800781 -1.960938 -2.460938 -1.796875 -1.984375 -1.796875 C -1.597656 -1.796875 -1.289062 -1.921875 -1.0625 -2.171875 C -0.84375 -2.429688 -0.734375 -2.773438 -0.734375 -3.203125 C -0.734375 -3.804688 -0.941406 -4.285156 -1.359375 -4.640625 C -1.785156 -5.003906 -2.351562 -5.1875 -3.0625 -5.1875 L -3.296875 -5.1875 Z M -3.75 -6.265625 L 0 -6.265625 L 0 -5.1875 L -1 -5.1875 C -0.601562 -4.9375 -0.304688 -4.628906 -0.109375 -4.265625 C 0.078125 -3.898438 0.171875 -3.453125 0.171875 -2.921875 C 0.171875 -2.242188 -0.015625 -1.707031 -0.390625 -1.3125 C -0.773438 -0.914062 -1.28125 -0.71875 -1.90625 -0.71875 C -2.644531 -0.71875 -3.203125 -0.960938 -3.578125 -1.453125 C -3.953125 -1.953125 -4.140625 -2.691406 -4.140625 -3.671875 L -4.140625 -5.1875 L -4.25 -5.1875 C -4.75 -5.1875 -5.132812 -5.019531 -5.40625 -4.6875 C -5.675781 -4.363281 -5.8125 -3.910156 -5.8125 -3.328125 C -5.8125 -2.953125 -5.765625 -2.582031 -5.671875 -2.21875 C -5.578125 -1.863281 -5.441406 -1.523438 -5.265625 -1.203125 L -6.265625 -1.203125 C -6.421875 -1.597656 -6.535156 -1.976562 -6.609375 -2.34375 C -6.679688 -2.71875 -6.71875 -3.082031 -6.71875 -3.4375 C -6.71875 -4.382812 -6.472656 -5.09375 -5.984375 -5.5625 C -5.492188 -6.03125 -4.75 -6.265625 -3.75 -6.265625 Z M -3.75 -6.265625 "/>
</symbol>
<symbol overflow="visible" id="ytNVZoXD5-2">
<path style="stroke:none;" d="M -8.078125 -7.734375 L -6.828125 -7.734375 C -7.203125 -7.328125 -7.476562 -6.898438 -7.65625 -6.453125 C -7.84375 -6.003906 -7.9375 -5.523438 -7.9375 -5.015625 C -7.9375 -4.015625 -7.628906 -3.25 -7.015625 -2.71875 C -6.398438 -2.1875 -5.515625 -1.921875 -4.359375 -1.921875 C -3.210938 -1.921875 -2.332031 -2.1875 -1.71875 -2.71875 C -1.101562 -3.25 -0.796875 -4.015625 -0.796875 -5.015625 C -0.796875 -5.523438 -0.890625 -6.003906 -1.078125 -6.453125 C -1.265625 -6.898438 -1.539062 -7.328125 -1.90625 -7.734375 L -0.671875 -7.734375 C -0.390625 -7.316406 -0.175781 -6.875 -0.03125 -6.40625 C 0.101562 -5.945312 0.171875 -5.460938 0.171875 -4.953125 C 0.171875 -3.617188 -0.234375 -2.570312 -1.046875 -1.8125 C -1.859375 -1.050781 -2.960938 -0.671875 -4.359375 -0.671875 C -5.765625 -0.671875 -6.875 -1.050781 -7.6875 -1.8125 C -8.5 -2.570312 -8.90625 -3.617188 -8.90625 -4.953125 C -8.90625 -5.472656 -8.832031 -5.960938 -8.6875 -6.421875 C -8.550781 -6.890625 -8.347656 -7.328125 -8.078125 -7.734375 Z M -8.078125 -7.734375 "/>
</symbol>
<symbol overflow="visible" id="ytNVZoXD5-3">
<path style="stroke:none;" d="M -2.59375 -1.015625 L -6.5625 -1.015625 L -6.5625 -2.09375 L -2.625 -2.09375 C -2.007812 -2.09375 -1.546875 -2.210938 -1.234375 -2.453125 C -0.921875 -2.703125 -0.765625 -3.066406 -0.765625 -3.546875 C -0.765625 -4.128906 -0.945312 -4.585938 -1.3125 -4.921875 C -1.6875 -5.265625 -2.195312 -5.4375 -2.84375 -5.4375 L -6.5625 -5.4375 L -6.5625 -6.515625 L 0 -6.515625 L 0 -5.4375 L -1.015625 -5.4375 C -0.609375 -5.175781 -0.304688 -4.875 -0.109375 -4.53125 C 0.078125 -4.1875 0.171875 -3.785156 0.171875 -3.328125 C 0.171875 -2.566406 -0.0625 -1.988281 -0.53125 -1.59375 C -1 -1.207031 -1.6875 -1.015625 -2.59375 -1.015625 Z M -6.71875 -3.734375 Z M -6.71875 -3.734375 "/>
</symbol>
<symbol overflow="visible" id="ytNVZoXD6-0">
<path style="stroke:none;" d="M 2.125 -0.59375 L -8.46875 -0.59375 L -8.46875 -6.59375 L 2.125 -6.59375 Z M 1.453125 -1.265625 L 1.453125 -5.9375 L -7.78125 -5.9375 L -7.78125 -1.265625 Z M 1.453125 -1.265625 "/>
</symbol>
<symbol overflow="visible" id="ytNVZoXD6-1">
<path style="stroke:none;" d="M -6.5625 -1.125 L -6.5625 -2.203125 L 0 -2.203125 L 0 -1.125 Z M -9.125 -1.125 L -9.125 -2.203125 L -7.75 -2.203125 L -7.75 -1.125 Z M -9.125 -1.125 "/>
</symbol>
<symbol overflow="visible" id="ytNVZoXD6-2">
<path style="stroke:none;" d="M -3.546875 -6.75 L -3.03125 -6.75 L -3.03125 -1.78125 C -2.28125 -1.832031 -1.710938 -2.054688 -1.328125 -2.453125 C -0.941406 -2.859375 -0.75 -3.414062 -0.75 -4.125 C -0.75 -4.539062 -0.796875 -4.941406 -0.890625 -5.328125 C -0.992188 -5.722656 -1.148438 -6.113281 -1.359375 -6.5 L -0.328125 -6.5 C -0.171875 -6.101562 -0.0507812 -5.703125 0.03125 -5.296875 C 0.125 -4.890625 0.171875 -4.476562 0.171875 -4.0625 C 0.171875 -3.019531 -0.128906 -2.191406 -0.734375 -1.578125 C -1.347656 -0.960938 -2.175781 -0.65625 -3.21875 -0.65625 C -4.289062 -0.65625 -5.140625 -0.945312 -5.765625 -1.53125 C -6.398438 -2.113281 -6.71875 -2.894531 -6.71875 -3.875 C -6.71875 -4.757812 -6.429688 -5.457031 -5.859375 -5.96875 C -5.296875 -6.488281 -4.523438 -6.75 -3.546875 -6.75 Z M -3.875 -5.671875 C -4.457031 -5.660156 -4.925781 -5.492188 -5.28125 -5.171875 C -5.632812 -4.847656 -5.8125 -4.421875 -5.8125 -3.890625 C -5.8125 -3.285156 -5.640625 -2.800781 -5.296875 -2.4375 C -4.953125 -2.082031 -4.472656 -1.878906 -3.859375 -1.828125 Z M -3.875 -5.671875 "/>
</symbol>
<symbol overflow="visible" id="ytNVZoXD7-0">
<path style="stroke:none;" d="M 2.125 -0.59375 L -8.46875 -0.59375 L -8.46875 -6.59375 L 2.125 -6.59375 Z M 1.453125 -1.265625 L 1.453125 -5.9375 L -7.78125 -5.9375 L -7.78125 -1.265625 Z M 1.453125 -1.265625 "/>
</symbol>
<symbol overflow="visible" id="ytNVZoXD7-1">
<path style="stroke:none;" d="M -8.421875 -2.203125 L -6.5625 -2.203125 L -6.5625 -4.421875 L -5.71875 -4.421875 L -5.71875 -2.203125 L -2.15625 -2.203125 C -1.625 -2.203125 -1.28125 -2.273438 -1.125 -2.421875 C -0.976562 -2.566406 -0.90625 -2.863281 -0.90625 -3.3125 L -0.90625 -4.421875 L 0 -4.421875 L 0 -3.3125 C 0 -2.476562 -0.15625 -1.898438 -0.46875 -1.578125 C -0.78125 -1.265625 -1.34375 -1.109375 -2.15625 -1.109375 L -5.71875 -1.109375 L -5.71875 -0.328125 L -6.5625 -0.328125 L -6.5625 -1.109375 L -8.421875 -1.109375 Z M -8.421875 -2.203125 "/>
</symbol>
<symbol overflow="visible" id="ytNVZoXD7-2">
<path style="stroke:none;" d="M -5.8125 -3.671875 C -5.8125 -3.097656 -5.582031 -2.640625 -5.125 -2.296875 C -4.675781 -1.960938 -4.0625 -1.796875 -3.28125 -1.796875 C -2.488281 -1.796875 -1.867188 -1.960938 -1.421875 -2.296875 C -0.972656 -2.628906 -0.75 -3.085938 -0.75 -3.671875 C -0.75 -4.242188 -0.972656 -4.695312 -1.421875 -5.03125 C -1.878906 -5.375 -2.5 -5.546875 -3.28125 -5.546875 C -4.050781 -5.546875 -4.664062 -5.375 -5.125 -5.03125 C -5.582031 -4.695312 -5.8125 -4.242188 -5.8125 -3.671875 Z M -6.71875 -3.671875 C -6.71875 -4.609375 -6.410156 -5.34375 -5.796875 -5.875 C -5.191406 -6.414062 -4.351562 -6.6875 -3.28125 -6.6875 C -2.207031 -6.6875 -1.363281 -6.414062 -0.75 -5.875 C -0.132812 -5.34375 0.171875 -4.609375 0.171875 -3.671875 C 0.171875 -2.734375 -0.132812 -1.992188 -0.75 -1.453125 C -1.363281 -0.921875 -2.207031 -0.65625 -3.28125 -0.65625 C -4.351562 -0.65625 -5.191406 -0.921875 -5.796875 -1.453125 C -6.410156 -1.992188 -6.71875 -2.734375 -6.71875 -3.671875 Z M -6.71875 -3.671875 "/>
</symbol>
<symbol overflow="visible" id="ytNVZoXD7-3">
<path style="stroke:none;" d="M -5.296875 -6.234375 C -5.785156 -6.503906 -6.144531 -6.828125 -6.375 -7.203125 C -6.601562 -7.578125 -6.71875 -8.019531 -6.71875 -8.53125 C -6.71875 -9.21875 -6.476562 -9.742188 -6 -10.109375 C -5.519531 -10.484375 -4.84375 -10.671875 -3.96875 -10.671875 L 0 -10.671875 L 0 -9.59375 L -3.921875 -9.59375 C -4.554688 -9.59375 -5.023438 -9.476562 -5.328125 -9.25 C -5.628906 -9.03125 -5.78125 -8.691406 -5.78125 -8.234375 C -5.78125 -7.671875 -5.59375 -7.226562 -5.21875 -6.90625 C -4.851562 -6.582031 -4.347656 -6.421875 -3.703125 -6.421875 L 0 -6.421875 L 0 -5.34375 L -3.921875 -5.34375 C -4.554688 -5.34375 -5.023438 -5.226562 -5.328125 -5 C -5.628906 -4.78125 -5.78125 -4.4375 -5.78125 -3.96875 C -5.78125 -3.414062 -5.59375 -2.976562 -5.21875 -2.65625 C -4.851562 -2.332031 -4.347656 -2.171875 -3.703125 -2.171875 L 0 -2.171875 L 0 -1.09375 L -6.5625 -1.09375 L -6.5625 -2.171875 L -5.546875 -2.171875 C -5.941406 -2.421875 -6.234375 -2.71875 -6.421875 -3.0625 C -6.617188 -3.40625 -6.71875 -3.8125 -6.71875 -4.28125 C -6.71875 -4.757812 -6.597656 -5.164062 -6.359375 -5.5 C -6.117188 -5.832031 -5.765625 -6.078125 -5.296875 -6.234375 Z M -5.296875 -6.234375 "/>
</symbol>
<symbol overflow="visible" id="ytNVZoXD8-0">
<path style="stroke:none;" d="M 2.125 -0.59375 L -8.46875 -0.59375 L -8.46875 -6.59375 L 2.125 -6.59375 Z M 1.453125 -1.265625 L 1.453125 -5.9375 L -7.78125 -5.9375 L -7.78125 -1.265625 Z M 1.453125 -1.265625 "/>
</symbol>
<symbol overflow="visible" id="ytNVZoXD8-1">
<path style="stroke:none;" d="M -3.296875 -4.109375 C -3.296875 -3.242188 -3.195312 -2.640625 -3 -2.296875 C -2.800781 -1.960938 -2.460938 -1.796875 -1.984375 -1.796875 C -1.597656 -1.796875 -1.289062 -1.921875 -1.0625 -2.171875 C -0.84375 -2.429688 -0.734375 -2.773438 -0.734375 -3.203125 C -0.734375 -3.804688 -0.941406 -4.285156 -1.359375 -4.640625 C -1.785156 -5.003906 -2.351562 -5.1875 -3.0625 -5.1875 L -3.296875 -5.1875 Z M -3.75 -6.265625 L 0 -6.265625 L 0 -5.1875 L -1 -5.1875 C -0.601562 -4.9375 -0.304688 -4.628906 -0.109375 -4.265625 C 0.078125 -3.898438 0.171875 -3.453125 0.171875 -2.921875 C 0.171875 -2.242188 -0.015625 -1.707031 -0.390625 -1.3125 C -0.773438 -0.914062 -1.28125 -0.71875 -1.90625 -0.71875 C -2.644531 -0.71875 -3.203125 -0.960938 -3.578125 -1.453125 C -3.953125 -1.953125 -4.140625 -2.691406 -4.140625 -3.671875 L -4.140625 -5.1875 L -4.25 -5.1875 C -4.75 -5.1875 -5.132812 -5.019531 -5.40625 -4.6875 C -5.675781 -4.363281 -5.8125 -3.910156 -5.8125 -3.328125 C -5.8125 -2.953125 -5.765625 -2.582031 -5.671875 -2.21875 C -5.578125 -1.863281 -5.441406 -1.523438 -5.265625 -1.203125 L -6.265625 -1.203125 C -6.421875 -1.597656 -6.535156 -1.976562 -6.609375 -2.34375 C -6.679688 -2.71875 -6.71875 -3.082031 -6.71875 -3.4375 C -6.71875 -4.382812 -6.472656 -5.09375 -5.984375 -5.5625 C -5.492188 -6.03125 -4.75 -6.265625 -3.75 -6.265625 Z M -3.75 -6.265625 "/>
</symbol>
<symbol overflow="visible" id="ytNVZoXD8-2">
<path style="stroke:none;" d="M -8.421875 -2.203125 L -6.5625 -2.203125 L -6.5625 -4.421875 L -5.71875 -4.421875 L -5.71875 -2.203125 L -2.15625 -2.203125 C -1.625 -2.203125 -1.28125 -2.273438 -1.125 -2.421875 C -0.976562 -2.566406 -0.90625 -2.863281 -0.90625 -3.3125 L -0.90625 -4.421875 L 0 -4.421875 L 0 -3.3125 C 0 -2.476562 -0.15625 -1.898438 -0.46875 -1.578125 C -0.78125 -1.265625 -1.34375 -1.109375 -2.15625 -1.109375 L -5.71875 -1.109375 L -5.71875 -0.328125 L -6.5625 -0.328125 L -6.5625 -1.109375 L -8.421875 -1.109375 Z M -8.421875 -2.203125 "/>
</symbol>
<symbol overflow="visible" id="ytNVZoXD8-3">
<path style="stroke:none;" d="M -6.5625 -1.125 L -6.5625 -2.203125 L 0 -2.203125 L 0 -1.125 Z M -9.125 -1.125 L -9.125 -2.203125 L -7.75 -2.203125 L -7.75 -1.125 Z M -9.125 -1.125 "/>
</symbol>
<symbol overflow="visible" id="ytNVZoXD8-4">
<path style="stroke:none;" d="M -6.3125 -5.859375 L -5.296875 -5.859375 C -5.472656 -5.546875 -5.601562 -5.238281 -5.6875 -4.9375 C -5.769531 -4.632812 -5.8125 -4.328125 -5.8125 -4.015625 C -5.8125 -3.304688 -5.585938 -2.757812 -5.140625 -2.375 C -4.703125 -1.988281 -4.082031 -1.796875 -3.28125 -1.796875 C -2.476562 -1.796875 -1.851562 -1.988281 -1.40625 -2.375 C -0.96875 -2.757812 -0.75 -3.304688 -0.75 -4.015625 C -0.75 -4.328125 -0.789062 -4.632812 -0.875 -4.9375 C -0.957031 -5.238281 -1.082031 -5.546875 -1.25 -5.859375 L -0.25 -5.859375 C -0.113281 -5.554688 -0.0078125 -5.242188 0.0625 -4.921875 C 0.132812 -4.597656 0.171875 -4.253906 0.171875 -3.890625 C 0.171875 -2.898438 -0.132812 -2.113281 -0.75 -1.53125 C -1.375 -0.945312 -2.21875 -0.65625 -3.28125 -0.65625 C -4.34375 -0.65625 -5.179688 -0.945312 -5.796875 -1.53125 C -6.410156 -2.125 -6.71875 -2.9375 -6.71875 -3.96875 C -6.71875 -4.289062 -6.679688 -4.609375 -6.609375 -4.921875 C -6.546875 -5.242188 -6.445312 -5.554688 -6.3125 -5.859375 Z M -6.3125 -5.859375 "/>
</symbol>
<symbol overflow="visible" id="ytNVZoXD8-5">
<path style="stroke:none;" d="M -9.109375 -0.96875 L -9.109375 -1.90625 C -8.179688 -2.488281 -7.273438 -2.925781 -6.390625 -3.21875 C -5.515625 -3.507812 -4.640625 -3.65625 -3.765625 -3.65625 C -2.890625 -3.65625 -2.007812 -3.507812 -1.125 -3.21875 C -0.238281 -2.925781 0.660156 -2.488281 1.578125 -1.90625 L 1.578125 -0.96875 C 0.679688 -1.476562 -0.207031 -1.863281 -1.09375 -2.125 C -1.976562 -2.382812 -2.867188 -2.515625 -3.765625 -2.515625 C -4.671875 -2.515625 -5.5625 -2.382812 -6.4375 -2.125 C -7.320312 -1.863281 -8.210938 -1.476562 -9.109375 -0.96875 Z M -9.109375 -0.96875 "/>
</symbol>
<symbol overflow="visible" id="ytNVZoXD9-0">
<path style="stroke:none;" d="M 2.125 -0.59375 L -8.46875 -0.59375 L -8.46875 -6.59375 L 2.125 -6.59375 Z M 1.453125 -1.265625 L 1.453125 -5.9375 L -7.78125 -5.9375 L -7.78125 -1.265625 Z M 1.453125 -1.265625 "/>
</symbol>
<symbol overflow="visible" id="ytNVZoXD9-1">
<path style="stroke:none;" d="M -9.109375 -3.71875 C -8.210938 -3.195312 -7.320312 -2.804688 -6.4375 -2.546875 C -5.5625 -2.296875 -4.671875 -2.171875 -3.765625 -2.171875 C -2.867188 -2.171875 -1.976562 -2.296875 -1.09375 -2.546875 C -0.207031 -2.804688 0.679688 -3.195312 1.578125 -3.71875 L 1.578125 -2.78125 C 0.660156 -2.195312 -0.238281 -1.757812 -1.125 -1.46875 C -2.007812 -1.175781 -2.890625 -1.03125 -3.765625 -1.03125 C -4.640625 -1.03125 -5.515625 -1.175781 -6.390625 -1.46875 C -7.273438 -1.757812 -8.179688 -2.195312 -9.109375 -2.78125 Z M -9.109375 -3.71875 "/>
</symbol>
<symbol overflow="visible" id="ytNVZoXD10-0">
<path style="stroke:none;" d="M 0.59375 2.125 L 0.59375 -8.46875 L 6.59375 -8.46875 L 6.59375 2.125 Z M 1.265625 1.453125 L 5.9375 1.453125 L 5.9375 -7.78125 L 1.265625 -7.78125 Z M 1.265625 1.453125 "/>
</symbol>
<symbol overflow="visible" id="ytNVZoXD10-1">
<path style="stroke:none;" d="M 1.484375 -1 L 3.421875 -1 L 3.421875 -7.671875 L 1.3125 -7.25 L 1.3125 -8.328125 L 3.40625 -8.75 L 4.59375 -8.75 L 4.59375 -1 L 6.53125 -1 L 6.53125 0 L 1.484375 0 Z M 1.484375 -1 "/>
</symbol>
<symbol overflow="visible" id="ytNVZoXD11-0">
<path style="stroke:none;" d="M 0.59375 2.125 L 0.59375 -8.46875 L 6.59375 -8.46875 L 6.59375 2.125 Z M 1.265625 1.453125 L 5.9375 1.453125 L 5.9375 -7.78125 L 1.265625 -7.78125 Z M 1.265625 1.453125 "/>
</symbol>
<symbol overflow="visible" id="ytNVZoXD11-1">
<path style="stroke:none;" d="M 3.8125 -7.96875 C 3.207031 -7.96875 2.75 -7.664062 2.4375 -7.0625 C 2.132812 -6.46875 1.984375 -5.566406 1.984375 -4.359375 C 1.984375 -3.160156 2.132812 -2.257812 2.4375 -1.65625 C 2.75 -1.0625 3.207031 -0.765625 3.8125 -0.765625 C 4.425781 -0.765625 4.882812 -1.0625 5.1875 -1.65625 C 5.5 -2.257812 5.65625 -3.160156 5.65625 -4.359375 C 5.65625 -5.566406 5.5 -6.46875 5.1875 -7.0625 C 4.882812 -7.664062 4.425781 -7.96875 3.8125 -7.96875 Z M 3.8125 -8.90625 C 4.789062 -8.90625 5.539062 -8.515625 6.0625 -7.734375 C 6.582031 -6.960938 6.84375 -5.835938 6.84375 -4.359375 C 6.84375 -2.890625 6.582031 -1.765625 6.0625 -0.984375 C 5.539062 -0.210938 4.789062 0.171875 3.8125 0.171875 C 2.832031 0.171875 2.082031 -0.210938 1.5625 -0.984375 C 1.050781 -1.765625 0.796875 -2.890625 0.796875 -4.359375 C 0.796875 -5.835938 1.050781 -6.960938 1.5625 -7.734375 C 2.082031 -8.515625 2.832031 -8.90625 3.8125 -8.90625 Z M 3.8125 -8.90625 "/>
</symbol>
<symbol overflow="visible" id="ytNVZoXD12-0">
<path style="stroke:none;" d="M 0.59375 2.125 L 0.59375 -8.46875 L 6.59375 -8.46875 L 6.59375 2.125 Z M 1.265625 1.453125 L 5.9375 1.453125 L 5.9375 -7.78125 L 1.265625 -7.78125 Z M 1.265625 1.453125 "/>
</symbol>
<symbol overflow="visible" id="ytNVZoXD12-1">
<path style="stroke:none;" d="M 1.171875 -8.75 L 2.359375 -8.75 L 2.359375 -1 L 6.625 -1 L 6.625 0 L 1.171875 0 Z M 1.171875 -8.75 "/>
</symbol>
<symbol overflow="visible" id="ytNVZoXD12-2">
<path style="stroke:none;" d="M 2.921875 -4.703125 C 2.566406 -4.390625 2.304688 -4.070312 2.140625 -3.75 C 1.972656 -3.4375 1.890625 -3.109375 1.890625 -2.765625 C 1.890625 -2.203125 2.09375 -1.726562 2.5 -1.34375 C 2.914062 -0.96875 3.4375 -0.78125 4.0625 -0.78125 C 4.4375 -0.78125 4.785156 -0.84375 5.109375 -0.96875 C 5.429688 -1.09375 5.738281 -1.28125 6.03125 -1.53125 Z M 3.75 -5.359375 L 6.71875 -2.3125 C 6.945312 -2.664062 7.125 -3.039062 7.25 -3.4375 C 7.382812 -3.832031 7.460938 -4.25 7.484375 -4.6875 L 8.578125 -4.6875 C 8.535156 -4.175781 8.410156 -3.664062 8.203125 -3.15625 C 8.003906 -2.65625 7.722656 -2.160156 7.359375 -1.671875 L 8.984375 0 L 7.515625 0 L 6.671875 -0.859375 C 6.265625 -0.515625 5.835938 -0.253906 5.390625 -0.078125 C 4.953125 0.0859375 4.476562 0.171875 3.96875 0.171875 C 3.019531 0.171875 2.242188 -0.09375 1.640625 -0.625 C 1.046875 -1.164062 0.75 -1.859375 0.75 -2.703125 C 0.75 -3.203125 0.878906 -3.671875 1.140625 -4.109375 C 1.410156 -4.546875 1.804688 -4.957031 2.328125 -5.34375 C 2.140625 -5.59375 1.992188 -5.835938 1.890625 -6.078125 C 1.796875 -6.328125 1.75 -6.566406 1.75 -6.796875 C 1.75 -7.429688 1.960938 -7.941406 2.390625 -8.328125 C 2.828125 -8.710938 3.40625 -8.90625 4.125 -8.90625 C 4.457031 -8.90625 4.78125 -8.867188 5.09375 -8.796875 C 5.414062 -8.734375 5.742188 -8.628906 6.078125 -8.484375 L 6.078125 -7.421875 C 5.742188 -7.597656 5.421875 -7.734375 5.109375 -7.828125 C 4.796875 -7.929688 4.507812 -7.984375 4.25 -7.984375 C 3.84375 -7.984375 3.507812 -7.875 3.25 -7.65625 C 2.988281 -7.4375 2.859375 -7.15625 2.859375 -6.8125 C 2.859375 -6.613281 2.914062 -6.410156 3.03125 -6.203125 C 3.15625 -6.003906 3.394531 -5.722656 3.75 -5.359375 Z M 3.75 -5.359375 "/>
</symbol>
<symbol overflow="visible" id="ytNVZoXD12-3">
<path style="stroke:none;" d="M 1.09375 -9.125 L 2.171875 -9.125 L 2.171875 -3.734375 L 5.390625 -6.5625 L 6.765625 -6.5625 L 3.28125 -3.5 L 6.921875 0 L 5.515625 0 L 2.171875 -3.203125 L 2.171875 0 L 1.09375 0 Z M 1.09375 -9.125 "/>
</symbol>
<symbol overflow="visible" id="ytNVZoXD12-4">
<path style="stroke:none;" d="M 2.359375 -7.78125 L 2.359375 -4.484375 L 3.84375 -4.484375 C 4.394531 -4.484375 4.820312 -4.625 5.125 -4.90625 C 5.425781 -5.195312 5.578125 -5.609375 5.578125 -6.140625 C 5.578125 -6.660156 5.425781 -7.0625 5.125 -7.34375 C 4.820312 -7.632812 4.394531 -7.78125 3.84375 -7.78125 Z M 1.171875 -8.75 L 3.84375 -8.75 C 4.832031 -8.75 5.578125 -8.523438 6.078125 -8.078125 C 6.578125 -7.640625 6.828125 -6.992188 6.828125 -6.140625 C 6.828125 -5.273438 6.578125 -4.617188 6.078125 -4.171875 C 5.578125 -3.734375 4.832031 -3.515625 3.84375 -3.515625 L 2.359375 -3.515625 L 2.359375 0 L 1.171875 0 Z M 1.171875 -8.75 "/>
</symbol>
<symbol overflow="visible" id="ytNVZoXD12-5">
<path style="stroke:none;" d="M 1.125 -9.125 L 2.203125 -9.125 L 2.203125 0 L 1.125 0 Z M 1.125 -9.125 "/>
</symbol>
<symbol overflow="visible" id="ytNVZoXD12-6">
<path style="stroke:none;" d="M 3.859375 0.609375 C 3.554688 1.390625 3.257812 1.898438 2.96875 2.140625 C 2.675781 2.378906 2.289062 2.5 1.8125 2.5 L 0.953125 2.5 L 0.953125 1.59375 L 1.578125 1.59375 C 1.878906 1.59375 2.109375 1.519531 2.265625 1.375 C 2.429688 1.238281 2.613281 0.910156 2.8125 0.390625 L 3.015625 -0.109375 L 0.359375 -6.5625 L 1.5 -6.5625 L 3.546875 -1.4375 L 5.609375 -6.5625 L 6.75 -6.5625 Z M 3.859375 0.609375 "/>
</symbol>
<symbol overflow="visible" id="ytNVZoXD12-7">
<path style="stroke:none;" d=""/>
</symbol>
<symbol overflow="visible" id="ytNVZoXD13-0">
<path style="stroke:none;" d="M 0.59375 2.125 L 0.59375 -8.46875 L 6.59375 -8.46875 L 6.59375 2.125 Z M 1.265625 1.453125 L 5.9375 1.453125 L 5.9375 -7.78125 L 1.265625 -7.78125 Z M 1.265625 1.453125 "/>
</symbol>
<symbol overflow="visible" id="ytNVZoXD13-1">
<path style="stroke:none;" d="M 1.125 -6.5625 L 2.203125 -6.5625 L 2.203125 0 L 1.125 0 Z M 1.125 -9.125 L 2.203125 -9.125 L 2.203125 -7.75 L 1.125 -7.75 Z M 1.125 -9.125 "/>
</symbol>
<symbol overflow="visible" id="ytNVZoXD13-2">
<path style="stroke:none;" d="M 6.59375 -3.96875 L 6.59375 0 L 5.515625 0 L 5.515625 -3.921875 C 5.515625 -4.546875 5.390625 -5.007812 5.140625 -5.3125 C 4.898438 -5.625 4.539062 -5.78125 4.0625 -5.78125 C 3.476562 -5.78125 3.015625 -5.59375 2.671875 -5.21875 C 2.335938 -4.851562 2.171875 -4.347656 2.171875 -3.703125 L 2.171875 0 L 1.09375 0 L 1.09375 -6.5625 L 2.171875 -6.5625 L 2.171875 -5.546875 C 2.429688 -5.941406 2.734375 -6.234375 3.078125 -6.421875 C 3.429688 -6.617188 3.835938 -6.71875 4.296875 -6.71875 C 5.046875 -6.71875 5.613281 -6.484375 6 -6.015625 C 6.394531 -5.554688 6.59375 -4.875 6.59375 -3.96875 Z M 6.59375 -3.96875 "/>
</symbol>
<symbol overflow="visible" id="ytNVZoXD13-3">
<path style="stroke:none;" d="M 6.75 -3.546875 L 6.75 -3.03125 L 1.78125 -3.03125 C 1.832031 -2.28125 2.054688 -1.710938 2.453125 -1.328125 C 2.859375 -0.941406 3.414062 -0.75 4.125 -0.75 C 4.539062 -0.75 4.941406 -0.796875 5.328125 -0.890625 C 5.722656 -0.992188 6.113281 -1.148438 6.5 -1.359375 L 6.5 -0.328125 C 6.101562 -0.171875 5.703125 -0.0507812 5.296875 0.03125 C 4.890625 0.125 4.476562 0.171875 4.0625 0.171875 C 3.019531 0.171875 2.191406 -0.128906 1.578125 -0.734375 C 0.960938 -1.347656 0.65625 -2.175781 0.65625 -3.21875 C 0.65625 -4.289062 0.945312 -5.140625 1.53125 -5.765625 C 2.113281 -6.398438 2.894531 -6.71875 3.875 -6.71875 C 4.757812 -6.71875 5.457031 -6.429688 5.96875 -5.859375 C 6.488281 -5.296875 6.75 -4.523438 6.75 -3.546875 Z M 5.671875 -3.875 C 5.660156 -4.457031 5.492188 -4.925781 5.171875 -5.28125 C 4.847656 -5.632812 4.421875 -5.8125 3.890625 -5.8125 C 3.285156 -5.8125 2.800781 -5.640625 2.4375 -5.296875 C 2.082031 -4.953125 1.878906 -4.472656 1.828125 -3.859375 Z M 5.671875 -3.875 "/>
</symbol>
<symbol overflow="visible" id="ytNVZoXD13-4">
<path style="stroke:none;" d=""/>
</symbol>
<symbol overflow="visible" id="ytNVZoXD13-5">
<path style="stroke:none;" d="M 4.109375 -3.296875 C 3.242188 -3.296875 2.640625 -3.195312 2.296875 -3 C 1.960938 -2.800781 1.796875 -2.460938 1.796875 -1.984375 C 1.796875 -1.597656 1.921875 -1.289062 2.171875 -1.0625 C 2.429688 -0.84375 2.773438 -0.734375 3.203125 -0.734375 C 3.804688 -0.734375 4.285156 -0.941406 4.640625 -1.359375 C 5.003906 -1.785156 5.1875 -2.351562 5.1875 -3.0625 L 5.1875 -3.296875 Z M 6.265625 -3.75 L 6.265625 0 L 5.1875 0 L 5.1875 -1 C 4.9375 -0.601562 4.628906 -0.304688 4.265625 -0.109375 C 3.898438 0.078125 3.453125 0.171875 2.921875 0.171875 C 2.242188 0.171875 1.707031 -0.015625 1.3125 -0.390625 C 0.914062 -0.773438 0.71875 -1.28125 0.71875 -1.90625 C 0.71875 -2.644531 0.960938 -3.203125 1.453125 -3.578125 C 1.953125 -3.953125 2.691406 -4.140625 3.671875 -4.140625 L 5.1875 -4.140625 L 5.1875 -4.25 C 5.1875 -4.75 5.019531 -5.132812 4.6875 -5.40625 C 4.363281 -5.675781 3.910156 -5.8125 3.328125 -5.8125 C 2.953125 -5.8125 2.582031 -5.765625 2.21875 -5.671875 C 1.863281 -5.578125 1.523438 -5.441406 1.203125 -5.265625 L 1.203125 -6.265625 C 1.597656 -6.421875 1.976562 -6.535156 2.34375 -6.609375 C 2.71875 -6.679688 3.082031 -6.71875 3.4375 -6.71875 C 4.382812 -6.71875 5.09375 -6.472656 5.5625 -5.984375 C 6.03125 -5.492188 6.265625 -4.75 6.265625 -3.75 Z M 6.265625 -3.75 "/>
</symbol>
<symbol overflow="visible" id="ytNVZoXD13-6">
<path style="stroke:none;" d="M 4.9375 -5.5625 C 4.8125 -5.625 4.675781 -5.671875 4.53125 -5.703125 C 4.394531 -5.742188 4.238281 -5.765625 4.0625 -5.765625 C 3.457031 -5.765625 2.988281 -5.566406 2.65625 -5.171875 C 2.332031 -4.773438 2.171875 -4.203125 2.171875 -3.453125 L 2.171875 0 L 1.09375 0 L 1.09375 -6.5625 L 2.171875 -6.5625 L 2.171875 -5.546875 C 2.398438 -5.941406 2.695312 -6.234375 3.0625 -6.421875 C 3.425781 -6.617188 3.867188 -6.71875 4.390625 -6.71875 C 4.460938 -6.71875 4.539062 -6.710938 4.625 -6.703125 C 4.71875 -6.691406 4.816406 -6.675781 4.921875 -6.65625 Z M 4.9375 -5.5625 "/>
</symbol>
<symbol overflow="visible" id="ytNVZoXD13-7">
<path style="stroke:none;" d="M 3.671875 -5.8125 C 3.097656 -5.8125 2.640625 -5.582031 2.296875 -5.125 C 1.960938 -4.675781 1.796875 -4.0625 1.796875 -3.28125 C 1.796875 -2.488281 1.960938 -1.867188 2.296875 -1.421875 C 2.628906 -0.972656 3.085938 -0.75 3.671875 -0.75 C 4.242188 -0.75 4.695312 -0.972656 5.03125 -1.421875 C 5.375 -1.878906 5.546875 -2.5 5.546875 -3.28125 C 5.546875 -4.050781 5.375 -4.664062 5.03125 -5.125 C 4.695312 -5.582031 4.242188 -5.8125 3.671875 -5.8125 Z M 3.671875 -6.71875 C 4.609375 -6.71875 5.34375 -6.410156 5.875 -5.796875 C 6.414062 -5.191406 6.6875 -4.351562 6.6875 -3.28125 C 6.6875 -2.207031 6.414062 -1.363281 5.875 -0.75 C 5.34375 -0.132812 4.609375 0.171875 3.671875 0.171875 C 2.734375 0.171875 1.992188 -0.132812 1.453125 -0.75 C 0.921875 -1.363281 0.65625 -2.207031 0.65625 -3.28125 C 0.65625 -4.351562 0.921875 -5.191406 1.453125 -5.796875 C 1.992188 -6.410156 2.734375 -6.71875 3.671875 -6.71875 Z M 3.671875 -6.71875 "/>
</symbol>
<symbol overflow="visible" id="ytNVZoXD13-8">
<path style="stroke:none;" d="M 2.921875 -4.703125 C 2.566406 -4.390625 2.304688 -4.070312 2.140625 -3.75 C 1.972656 -3.4375 1.890625 -3.109375 1.890625 -2.765625 C 1.890625 -2.203125 2.09375 -1.726562 2.5 -1.34375 C 2.914062 -0.96875 3.4375 -0.78125 4.0625 -0.78125 C 4.4375 -0.78125 4.785156 -0.84375 5.109375 -0.96875 C 5.429688 -1.09375 5.738281 -1.28125 6.03125 -1.53125 Z M 3.75 -5.359375 L 6.71875 -2.3125 C 6.945312 -2.664062 7.125 -3.039062 7.25 -3.4375 C 7.382812 -3.832031 7.460938 -4.25 7.484375 -4.6875 L 8.578125 -4.6875 C 8.535156 -4.175781 8.410156 -3.664062 8.203125 -3.15625 C 8.003906 -2.65625 7.722656 -2.160156 7.359375 -1.671875 L 8.984375 0 L 7.515625 0 L 6.671875 -0.859375 C 6.265625 -0.515625 5.835938 -0.253906 5.390625 -0.078125 C 4.953125 0.0859375 4.476562 0.171875 3.96875 0.171875 C 3.019531 0.171875 2.242188 -0.09375 1.640625 -0.625 C 1.046875 -1.164062 0.75 -1.859375 0.75 -2.703125 C 0.75 -3.203125 0.878906 -3.671875 1.140625 -4.109375 C 1.410156 -4.546875 1.804688 -4.957031 2.328125 -5.34375 C 2.140625 -5.59375 1.992188 -5.835938 1.890625 -6.078125 C 1.796875 -6.328125 1.75 -6.566406 1.75 -6.796875 C 1.75 -7.429688 1.960938 -7.941406 2.390625 -8.328125 C 2.828125 -8.710938 3.40625 -8.90625 4.125 -8.90625 C 4.457031 -8.90625 4.78125 -8.867188 5.09375 -8.796875 C 5.414062 -8.734375 5.742188 -8.628906 6.078125 -8.484375 L 6.078125 -7.421875 C 5.742188 -7.597656 5.421875 -7.734375 5.109375 -7.828125 C 4.796875 -7.929688 4.507812 -7.984375 4.25 -7.984375 C 3.84375 -7.984375 3.507812 -7.875 3.25 -7.65625 C 2.988281 -7.4375 2.859375 -7.15625 2.859375 -6.8125 C 2.859375 -6.613281 2.914062 -6.410156 3.03125 -6.203125 C 3.15625 -6.003906 3.394531 -5.722656 3.75 -5.359375 Z M 3.75 -5.359375 "/>
</symbol>
<symbol overflow="visible" id="ytNVZoXD13-9">
<path style="stroke:none;" d="M 1.171875 -8.75 L 2.359375 -8.75 L 2.359375 -1 L 6.625 -1 L 6.625 0 L 1.171875 0 Z M 1.171875 -8.75 "/>
</symbol>
<symbol overflow="visible" id="ytNVZoXD14-0">
<path style="stroke:none;" d="M 0.59375 2.125 L 0.59375 -8.46875 L 6.59375 -8.46875 L 6.59375 2.125 Z M 1.265625 1.453125 L 5.9375 1.453125 L 5.9375 -7.78125 L 1.265625 -7.78125 Z M 1.265625 1.453125 "/>
</symbol>
<symbol overflow="visible" id="ytNVZoXD14-1">
<path style="stroke:none;" d="M 1.171875 -8.75 L 2.9375 -8.75 L 5.171875 -2.796875 L 7.421875 -8.75 L 9.1875 -8.75 L 9.1875 0 L 8.03125 0 L 8.03125 -7.6875 L 5.765625 -1.6875 L 4.578125 -1.6875 L 2.328125 -7.6875 L 2.328125 0 L 1.171875 0 Z M 1.171875 -8.75 "/>
</symbol>
<symbol overflow="visible" id="ytNVZoXD14-2">
<path style="stroke:none;" d="M 6.75 -3.546875 L 6.75 -3.03125 L 1.78125 -3.03125 C 1.832031 -2.28125 2.054688 -1.710938 2.453125 -1.328125 C 2.859375 -0.941406 3.414062 -0.75 4.125 -0.75 C 4.539062 -0.75 4.941406 -0.796875 5.328125 -0.890625 C 5.722656 -0.992188 6.113281 -1.148438 6.5 -1.359375 L 6.5 -0.328125 C 6.101562 -0.171875 5.703125 -0.0507812 5.296875 0.03125 C 4.890625 0.125 4.476562 0.171875 4.0625 0.171875 C 3.019531 0.171875 2.191406 -0.128906 1.578125 -0.734375 C 0.960938 -1.347656 0.65625 -2.175781 0.65625 -3.21875 C 0.65625 -4.289062 0.945312 -5.140625 1.53125 -5.765625 C 2.113281 -6.398438 2.894531 -6.71875 3.875 -6.71875 C 4.757812 -6.71875 5.457031 -6.429688 5.96875 -5.859375 C 6.488281 -5.296875 6.75 -4.523438 6.75 -3.546875 Z M 5.671875 -3.875 C 5.660156 -4.457031 5.492188 -4.925781 5.171875 -5.28125 C 4.847656 -5.632812 4.421875 -5.8125 3.890625 -5.8125 C 3.285156 -5.8125 2.800781 -5.640625 2.4375 -5.296875 C 2.082031 -4.953125 1.878906 -4.472656 1.828125 -3.859375 Z M 5.671875 -3.875 "/>
</symbol>
<symbol overflow="visible" id="ytNVZoXD14-3">
<path style="stroke:none;" d=""/>
</symbol>
<symbol overflow="visible" id="ytNVZoXD15-0">
<path style="stroke:none;" d="M 0.59375 2.125 L 0.59375 -8.46875 L 6.59375 -8.46875 L 6.59375 2.125 Z M 1.265625 1.453125 L 5.9375 1.453125 L 5.9375 -7.78125 L 1.265625 -7.78125 Z M 1.265625 1.453125 "/>
</symbol>
<symbol overflow="visible" id="ytNVZoXD15-1">
<path style="stroke:none;" d="M 1.171875 -8.75 L 2.359375 -8.75 L 2.359375 -1 L 6.625 -1 L 6.625 0 L 1.171875 0 Z M 1.171875 -8.75 "/>
</symbol>
<symbol overflow="visible" id="ytNVZoXD15-2">
<path style="stroke:none;" d="M 1.171875 -8.75 L 2.9375 -8.75 L 5.171875 -2.796875 L 7.421875 -8.75 L 9.1875 -8.75 L 9.1875 0 L 8.03125 0 L 8.03125 -7.6875 L 5.765625 -1.6875 L 4.578125 -1.6875 L 2.328125 -7.6875 L 2.328125 0 L 1.171875 0 Z M 1.171875 -8.75 "/>
</symbol>
<symbol overflow="visible" id="ytNVZoXD15-3">
<path style="stroke:none;" d="M 6.75 -3.546875 L 6.75 -3.03125 L 1.78125 -3.03125 C 1.832031 -2.28125 2.054688 -1.710938 2.453125 -1.328125 C 2.859375 -0.941406 3.414062 -0.75 4.125 -0.75 C 4.539062 -0.75 4.941406 -0.796875 5.328125 -0.890625 C 5.722656 -0.992188 6.113281 -1.148438 6.5 -1.359375 L 6.5 -0.328125 C 6.101562 -0.171875 5.703125 -0.0507812 5.296875 0.03125 C 4.890625 0.125 4.476562 0.171875 4.0625 0.171875 C 3.019531 0.171875 2.191406 -0.128906 1.578125 -0.734375 C 0.960938 -1.347656 0.65625 -2.175781 0.65625 -3.21875 C 0.65625 -4.289062 0.945312 -5.140625 1.53125 -5.765625 C 2.113281 -6.398438 2.894531 -6.71875 3.875 -6.71875 C 4.757812 -6.71875 5.457031 -6.429688 5.96875 -5.859375 C 6.488281 -5.296875 6.75 -4.523438 6.75 -3.546875 Z M 5.671875 -3.875 C 5.660156 -4.457031 5.492188 -4.925781 5.171875 -5.28125 C 4.847656 -5.632812 4.421875 -5.8125 3.890625 -5.8125 C 3.285156 -5.8125 2.800781 -5.640625 2.4375 -5.296875 C 2.082031 -4.953125 1.878906 -4.472656 1.828125 -3.859375 Z M 5.671875 -3.875 "/>
</symbol>
<symbol overflow="visible" id="ytNVZoXD16-0">
<path style="stroke:none;" d="M 0.59375 2.125 L 0.59375 -8.46875 L 6.59375 -8.46875 L 6.59375 2.125 Z M 1.265625 1.453125 L 5.9375 1.453125 L 5.9375 -7.78125 L 1.265625 -7.78125 Z M 1.265625 1.453125 "/>
</symbol>
<symbol overflow="visible" id="ytNVZoXD16-1">
<path style="stroke:none;" d="M 4.109375 -3.296875 C 3.242188 -3.296875 2.640625 -3.195312 2.296875 -3 C 1.960938 -2.800781 1.796875 -2.460938 1.796875 -1.984375 C 1.796875 -1.597656 1.921875 -1.289062 2.171875 -1.0625 C 2.429688 -0.84375 2.773438 -0.734375 3.203125 -0.734375 C 3.804688 -0.734375 4.285156 -0.941406 4.640625 -1.359375 C 5.003906 -1.785156 5.1875 -2.351562 5.1875 -3.0625 L 5.1875 -3.296875 Z M 6.265625 -3.75 L 6.265625 0 L 5.1875 0 L 5.1875 -1 C 4.9375 -0.601562 4.628906 -0.304688 4.265625 -0.109375 C 3.898438 0.078125 3.453125 0.171875 2.921875 0.171875 C 2.242188 0.171875 1.707031 -0.015625 1.3125 -0.390625 C 0.914062 -0.773438 0.71875 -1.28125 0.71875 -1.90625 C 0.71875 -2.644531 0.960938 -3.203125 1.453125 -3.578125 C 1.953125 -3.953125 2.691406 -4.140625 3.671875 -4.140625 L 5.1875 -4.140625 L 5.1875 -4.25 C 5.1875 -4.75 5.019531 -5.132812 4.6875 -5.40625 C 4.363281 -5.675781 3.910156 -5.8125 3.328125 -5.8125 C 2.953125 -5.8125 2.582031 -5.765625 2.21875 -5.671875 C 1.863281 -5.578125 1.523438 -5.441406 1.203125 -5.265625 L 1.203125 -6.265625 C 1.597656 -6.421875 1.976562 -6.535156 2.34375 -6.609375 C 2.71875 -6.679688 3.082031 -6.71875 3.4375 -6.71875 C 4.382812 -6.71875 5.09375 -6.472656 5.5625 -5.984375 C 6.03125 -5.492188 6.265625 -4.75 6.265625 -3.75 Z M 6.265625 -3.75 "/>
</symbol>
<symbol overflow="visible" id="ytNVZoXD17-0">
<path style="stroke:none;" d="M 0.59375 2.125 L 0.59375 -8.46875 L 6.59375 -8.46875 L 6.59375 2.125 Z M 1.265625 1.453125 L 5.9375 1.453125 L 5.9375 -7.78125 L 1.265625 -7.78125 Z M 1.265625 1.453125 "/>
</symbol>
<symbol overflow="visible" id="ytNVZoXD17-1">
<path style="stroke:none;" d="M 2.359375 -7.78125 L 2.359375 -4.484375 L 3.84375 -4.484375 C 4.394531 -4.484375 4.820312 -4.625 5.125 -4.90625 C 5.425781 -5.195312 5.578125 -5.609375 5.578125 -6.140625 C 5.578125 -6.660156 5.425781 -7.0625 5.125 -7.34375 C 4.820312 -7.632812 4.394531 -7.78125 3.84375 -7.78125 Z M 1.171875 -8.75 L 3.84375 -8.75 C 4.832031 -8.75 5.578125 -8.523438 6.078125 -8.078125 C 6.578125 -7.640625 6.828125 -6.992188 6.828125 -6.140625 C 6.828125 -5.273438 6.578125 -4.617188 6.078125 -4.171875 C 5.578125 -3.734375 4.832031 -3.515625 3.84375 -3.515625 L 2.359375 -3.515625 L 2.359375 0 L 1.171875 0 Z M 1.171875 -8.75 "/>
</symbol>
<symbol overflow="visible" id="ytNVZoXD17-2">
<path style="stroke:none;" d="M 1.125 -9.125 L 2.203125 -9.125 L 2.203125 0 L 1.125 0 Z M 1.125 -9.125 "/>
</symbol>
<symbol overflow="visible" id="ytNVZoXD17-3">
<path style="stroke:none;" d="M 3.859375 0.609375 C 3.554688 1.390625 3.257812 1.898438 2.96875 2.140625 C 2.675781 2.378906 2.289062 2.5 1.8125 2.5 L 0.953125 2.5 L 0.953125 1.59375 L 1.578125 1.59375 C 1.878906 1.59375 2.109375 1.519531 2.265625 1.375 C 2.429688 1.238281 2.613281 0.910156 2.8125 0.390625 L 3.015625 -0.109375 L 0.359375 -6.5625 L 1.5 -6.5625 L 3.546875 -1.4375 L 5.609375 -6.5625 L 6.75 -6.5625 Z M 3.859375 0.609375 "/>
</symbol>
<symbol overflow="visible" id="ytNVZoXD18-0">
<path style="stroke:none;" d="M 0.59375 2.125 L 0.59375 -8.46875 L 6.59375 -8.46875 L 6.59375 2.125 Z M 1.265625 1.453125 L 5.9375 1.453125 L 5.9375 -7.78125 L 1.265625 -7.78125 Z M 1.265625 1.453125 "/>
</symbol>
<symbol overflow="visible" id="ytNVZoXD18-1">
<path style="stroke:none;" d="M 3.671875 -5.8125 C 3.097656 -5.8125 2.640625 -5.582031 2.296875 -5.125 C 1.960938 -4.675781 1.796875 -4.0625 1.796875 -3.28125 C 1.796875 -2.488281 1.960938 -1.867188 2.296875 -1.421875 C 2.628906 -0.972656 3.085938 -0.75 3.671875 -0.75 C 4.242188 -0.75 4.695312 -0.972656 5.03125 -1.421875 C 5.375 -1.878906 5.546875 -2.5 5.546875 -3.28125 C 5.546875 -4.050781 5.375 -4.664062 5.03125 -5.125 C 4.695312 -5.582031 4.242188 -5.8125 3.671875 -5.8125 Z M 3.671875 -6.71875 C 4.609375 -6.71875 5.34375 -6.410156 5.875 -5.796875 C 6.414062 -5.191406 6.6875 -4.351562 6.6875 -3.28125 C 6.6875 -2.207031 6.414062 -1.363281 5.875 -0.75 C 5.34375 -0.132812 4.609375 0.171875 3.671875 0.171875 C 2.734375 0.171875 1.992188 -0.132812 1.453125 -0.75 C 0.921875 -1.363281 0.65625 -2.207031 0.65625 -3.28125 C 0.65625 -4.351562 0.921875 -5.191406 1.453125 -5.796875 C 1.992188 -6.410156 2.734375 -6.71875 3.671875 -6.71875 Z M 3.671875 -6.71875 "/>
</symbol>
</g>
</defs>
<g id="surface1">
<rect x="0" y="0" width="600" height="450" style="fill:rgb(100%,100%,100%);fill-opacity:1;stroke:none;"/>
<path style=" stroke:none;fill-rule:nonzero;fill:rgb(100%,100%,100%);fill-opacity:1;" d="M 50.25 402 L 442.5 402 L 442.5 12 L 50.25 12 Z M 50.25 402 "/>
<path style="fill:none;stroke-width:1;stroke-linecap:butt;stroke-linejoin:miter;stroke:rgb(0%,0%,0%);stroke-opacity:0.12;stroke-miterlimit:10;" d="M 67 536 L 67 16 " transform="matrix(0.75,0,0,0.75,0,0)"/>
<path style="fill:none;stroke-width:1;stroke-linecap:butt;stroke-linejoin:miter;stroke:rgb(0%,0%,0%);stroke-opacity:0.12;stroke-miterlimit:10;" d="M 328.5 536 L 328.5 16 " transform="matrix(0.75,0,0,0.75,0,0)"/>
<path style="fill:none;stroke-width:1;stroke-linecap:butt;stroke-linejoin:miter;stroke:rgb(0%,0%,0%);stroke-opacity:0.12;stroke-miterlimit:10;" d="M 590 536 L 590 16 " transform="matrix(0.75,0,0,0.75,0,0)"/>
<path style="fill:none;stroke-width:1;stroke-linecap:butt;stroke-linejoin:miter;stroke:rgb(0%,0%,0%);stroke-opacity:0.12;stroke-miterlimit:10;" d="M 67 536 L 590 536 " transform="matrix(0.75,0,0,0.75,0,0)"/>
<path style="fill:none;stroke-width:1;stroke-linecap:butt;stroke-linejoin:miter;stroke:rgb(0%,0%,0%);stroke-opacity:0.12;stroke-miterlimit:10;" d="M 67 276 L 590 276 " transform="matrix(0.75,0,0,0.75,0,0)"/>
<path style="fill:none;stroke-width:1;stroke-linecap:butt;stroke-linejoin:miter;stroke:rgb(0%,0%,0%);stroke-opacity:0.12;stroke-miterlimit:10;" d="M 67 16 L 590 16 " transform="matrix(0.75,0,0,0.75,0,0)"/>
<g style="fill:rgb(0%,0%,0%);fill-opacity:1;">
  <use xlink:href="#ytNVZoXD0-1" x="177.71875" y="436.109375"/>
</g>
<g style="fill:rgb(0%,0%,0%);fill-opacity:1;">
  <use xlink:href="#ytNVZoXD0-2" x="188.070312" y="436.109375"/>
</g>
<g style="fill:rgb(0%,0%,0%);fill-opacity:1;">
  <use xlink:href="#ytNVZoXD0-3" x="195.425781" y="436.109375"/>
</g>
<g style="fill:rgb(0%,0%,0%);fill-opacity:1;">
  <use xlink:href="#ytNVZoXD1-1" x="202.375" y="436.109375"/>
</g>
<g style="fill:rgb(0%,0%,0%);fill-opacity:1;">
  <use xlink:href="#ytNVZoXD0-4" x="205.707031" y="436.109375"/>
</g>
<g style="fill:rgb(0%,0%,0%);fill-opacity:1;">
  <use xlink:href="#ytNVZoXD0-5" x="213.089844" y="436.109375"/>
</g>
<g style="fill:rgb(0%,0%,0%);fill-opacity:1;">
  <use xlink:href="#ytNVZoXD0-6" x="221.46875" y="436.109375"/>
</g>
<g style="fill:rgb(0%,0%,0%);fill-opacity:1;">
  <use xlink:href="#ytNVZoXD0-7" x="228.8125" y="436.109375"/>
</g>
<g style="fill:rgb(0%,0%,0%);fill-opacity:1;">
  <use xlink:href="#ytNVZoXD0-4" x="233.746094" y="436.109375"/>
</g>
<g style="fill:rgb(0%,0%,0%);fill-opacity:1;">
  <use xlink:href="#ytNVZoXD0-8" x="241.128906" y="436.109375"/>
</g>
<g style="fill:rgb(0%,0%,0%);fill-opacity:1;">
  <use xlink:href="#ytNVZoXD0-9" x="244.941406" y="436.109375"/>
</g>
<g style="fill:rgb(0%,0%,0%);fill-opacity:1;">
  <use xlink:href="#ytNVZoXD0-10" x="253.152344" y="436.109375"/>
</g>
<g style="fill:rgb(0%,0%,0%);fill-opacity:1;">
  <use xlink:href="#ytNVZoXD2-1" x="260.757812" y="436.109375"/>
</g>
<g style="fill:rgb(0%,0%,0%);fill-opacity:1;">
  <use xlink:href="#ytNVZoXD0-6" x="265.460938" y="436.109375"/>
</g>
<g style="fill:rgb(0%,0%,0%);fill-opacity:1;">
  <use xlink:href="#ytNVZoXD0-11" x="272.804688" y="436.109375"/>
</g>
<g style="fill:rgb(0%,0%,0%);fill-opacity:1;">
  <use xlink:href="#ytNVZoXD0-2" x="284.492188" y="436.109375"/>
</g>
<g style="fill:rgb(0%,0%,0%);fill-opacity:1;">
  <use xlink:href="#ytNVZoXD0-12" x="291.847656" y="436.109375"/>
</g>
<g style="fill:rgb(0%,0%,0%);fill-opacity:1;">
  <use xlink:href="#ytNVZoXD2-2" x="296.550781" y="436.109375"/>
</g>
<g style="fill:rgb(0%,0%,0%);fill-opacity:1;">
  <use xlink:href="#ytNVZoXD2-3" x="299.886719" y="436.109375"/>
</g>
<g style="fill:rgb(0%,0%,0%);fill-opacity:1;">
  <use xlink:href="#ytNVZoXD0-13" x="306.484375" y="436.109375"/>
</g>
<g style="fill:rgb(0%,0%,0%);fill-opacity:1;">
  <use xlink:href="#ytNVZoXD2-4" x="311.164062" y="436.109375"/>
</g>
<g style="fill:rgb(0%,0%,0%);fill-opacity:1;">
  <use xlink:href="#ytNVZoXD3-1" x="46.832031" y="419.890625"/>
</g>
<g style="fill:rgb(0%,0%,0%);fill-opacity:1;">
  <use xlink:href="#ytNVZoXD0-14" x="243.082031" y="419.890625"/>
</g>
<g style="fill:rgb(0%,0%,0%);fill-opacity:1;">
  <use xlink:href="#ytNVZoXD0-15" x="435" y="419.890625"/>
</g>
<g style="fill:rgb(0%,0%,0%);fill-opacity:1;">
  <use xlink:href="#ytNVZoXD0-16" x="442.632812" y="419.890625"/>
</g>
<g style="fill:rgb(0%,0%,0%);fill-opacity:1;">
  <use xlink:href="#ytNVZoXD4-1" x="22.128906" y="275.65625"/>
</g>
<g style="fill:rgb(0%,0%,0%);fill-opacity:1;">
  <use xlink:href="#ytNVZoXD5-1" x="22.128906" y="265.304688"/>
</g>
<g style="fill:rgb(0%,0%,0%);fill-opacity:1;">
  <use xlink:href="#ytNVZoXD4-2" x="22.128906" y="257.949219"/>
</g>
<g style="fill:rgb(0%,0%,0%);fill-opacity:1;">
  <use xlink:href="#ytNVZoXD6-1" x="22.128906" y="251"/>
</g>
<g style="fill:rgb(0%,0%,0%);fill-opacity:1;">
  <use xlink:href="#ytNVZoXD6-2" x="22.128906" y="247.667969"/>
</g>
<g style="fill:rgb(0%,0%,0%);fill-opacity:1;">
  <use xlink:href="#ytNVZoXD5-2" x="22.128906" y="240.285156"/>
</g>
<g style="fill:rgb(0%,0%,0%);fill-opacity:1;">
  <use xlink:href="#ytNVZoXD4-3" x="22.128906" y="231.90625"/>
</g>
<g style="fill:rgb(0%,0%,0%);fill-opacity:1;">
  <use xlink:href="#ytNVZoXD4-4" x="22.128906" y="224.5625"/>
</g>
<g style="fill:rgb(0%,0%,0%);fill-opacity:1;">
  <use xlink:href="#ytNVZoXD6-2" x="22.128906" y="219.628906"/>
</g>
<g style="fill:rgb(0%,0%,0%);fill-opacity:1;">
  <use xlink:href="#ytNVZoXD4-5" x="22.128906" y="212.246094"/>
</g>
<g style="fill:rgb(0%,0%,0%);fill-opacity:1;">
  <use xlink:href="#ytNVZoXD4-6" x="22.128906" y="208.433594"/>
</g>
<g style="fill:rgb(0%,0%,0%);fill-opacity:1;">
  <use xlink:href="#ytNVZoXD5-3" x="22.128906" y="200.222656"/>
</g>
<g style="fill:rgb(0%,0%,0%);fill-opacity:1;">
  <use xlink:href="#ytNVZoXD7-1" x="22.128906" y="192.617187"/>
</g>
<g style="fill:rgb(0%,0%,0%);fill-opacity:1;">
  <use xlink:href="#ytNVZoXD7-2" x="22.128906" y="187.914062"/>
</g>
<g style="fill:rgb(0%,0%,0%);fill-opacity:1;">
  <use xlink:href="#ytNVZoXD7-3" x="22.128906" y="180.570312"/>
</g>
<g style="fill:rgb(0%,0%,0%);fill-opacity:1;">
  <use xlink:href="#ytNVZoXD8-1" x="22.132812" y="168.882812"/>
</g>
<g style="fill:rgb(0%,0%,0%);fill-opacity:1;">
  <use xlink:href="#ytNVZoXD8-2" x="22.132812" y="161.527344"/>
</g>
<g style="fill:rgb(0%,0%,0%);fill-opacity:1;">
  <use xlink:href="#ytNVZoXD8-3" x="22.132812" y="156.824219"/>
</g>
<g style="fill:rgb(0%,0%,0%);fill-opacity:1;">
  <use xlink:href="#ytNVZoXD8-4" x="22.132812" y="153.488281"/>
</g>
<g style="fill:rgb(0%,0%,0%);fill-opacity:1;">
  <use xlink:href="#ytNVZoXD9-1" x="22.132812" y="146.890625"/>
</g>
<g style="fill:rgb(0%,0%,0%);fill-opacity:1;">
  <use xlink:href="#ytNVZoXD8-5" x="22.132812" y="142.210938"/>
</g>
<g style="fill:rgb(0%,0%,0%);fill-opacity:1;">
  <use xlink:href="#ytNVZoXD3-1" x="35.953125" y="406.15625"/>
</g>
<g style="fill:rgb(0%,0%,0%);fill-opacity:1;">
  <use xlink:href="#ytNVZoXD3-2" x="36.339844" y="211.15625"/>
</g>
<g style="fill:rgb(0%,0%,0%);fill-opacity:1;">
  <use xlink:href="#ytNVZoXD10-1" x="28.316406" y="16.152344"/>
</g>
<g style="fill:rgb(0%,0%,0%);fill-opacity:1;">
  <use xlink:href="#ytNVZoXD11-1" x="35.953125" y="16.152344"/>
</g>
<path style="fill:none;stroke-width:1;stroke-linecap:butt;stroke-linejoin:miter;stroke:rgb(0%,0%,0%);stroke-opacity:1;stroke-miterlimit:10;" d="M 67 536.5 L 67 542.5 " transform="matrix(0.75,0,0,0.75,0,0)"/>
<path style="fill:none;stroke-width:1;stroke-linecap:butt;stroke-linejoin:miter;stroke:rgb(0%,0%,0%);stroke-opacity:1;stroke-miterlimit:10;" d="M 328.5 536.5 L 328.5 542.5 " transform="matrix(0.75,0,0,0.75,0,0)"/>
<path style="fill:none;stroke-width:1;stroke-linecap:butt;stroke-linejoin:miter;stroke:rgb(0%,0%,0%);stroke-opacity:1;stroke-miterlimit:10;" d="M 590 536.5 L 590 542.5 " transform="matrix(0.75,0,0,0.75,0,0)"/>
<path style="fill:none;stroke-width:1;stroke-linecap:butt;stroke-linejoin:miter;stroke:rgb(0%,0%,0%);stroke-opacity:1;stroke-miterlimit:10;" d="M 66.5 536 L 60.5 536 " transform="matrix(0.75,0,0,0.75,0,0)"/>
<path style="fill:none;stroke-width:1;stroke-linecap:butt;stroke-linejoin:miter;stroke:rgb(0%,0%,0%);stroke-opacity:1;stroke-miterlimit:10;" d="M 66.5 276 L 60.5 276 " transform="matrix(0.75,0,0,0.75,0,0)"/>
<path style="fill:none;stroke-width:1;stroke-linecap:butt;stroke-linejoin:miter;stroke:rgb(0%,0%,0%);stroke-opacity:1;stroke-miterlimit:10;" d="M 66.5 16 L 60.5 16 " transform="matrix(0.75,0,0,0.75,0,0)"/>
<path style="fill-rule:nonzero;fill:rgb(100%,100%,100%);fill-opacity:1;stroke-width:1;stroke-linecap:butt;stroke-linejoin:miter;stroke:rgb(0%,0%,0%);stroke-opacity:1;stroke-miterlimit:10;" d="M 614 391 L 784 391 L 784 160 L 614 160 Z M 614 391 " transform="matrix(0.75,0,0,0.75,0,0)"/>
<g style="fill:rgb(0%,0%,0%);fill-opacity:1;">
  <use xlink:href="#ytNVZoXD12-1" x="496.710938" y="143.277344"/>
</g>
<g style="fill:rgb(0%,0%,0%);fill-opacity:1;">
  <use xlink:href="#ytNVZoXD13-1" x="503.398438" y="143.277344"/>
</g>
<g style="fill:rgb(0%,0%,0%);fill-opacity:1;">
  <use xlink:href="#ytNVZoXD13-2" x="506.730469" y="143.277344"/>
</g>
<g style="fill:rgb(0%,0%,0%);fill-opacity:1;">
  <use xlink:href="#ytNVZoXD13-3" x="514.335938" y="143.277344"/>
</g>
<g style="fill:rgb(0%,0%,0%);fill-opacity:1;">
  <use xlink:href="#ytNVZoXD13-4" x="521.71875" y="143.277344"/>
</g>
<g style="fill:rgb(0%,0%,0%);fill-opacity:1;">
  <use xlink:href="#ytNVZoXD12-2" x="525.53125" y="143.277344"/>
</g>
<g style="fill:rgb(0%,0%,0%);fill-opacity:1;">
  <use xlink:href="#ytNVZoXD13-4" x="534.890625" y="143.277344"/>
</g>
<g style="fill:rgb(0%,0%,0%);fill-opacity:1;">
  <use xlink:href="#ytNVZoXD14-1" x="538.703125" y="143.277344"/>
</g>
<g style="fill:rgb(0%,0%,0%);fill-opacity:1;">
  <use xlink:href="#ytNVZoXD13-5" x="549.058594" y="143.277344"/>
</g>
<g style="fill:rgb(0%,0%,0%);fill-opacity:1;">
  <use xlink:href="#ytNVZoXD13-6" x="556.414062" y="143.277344"/>
</g>
<g style="fill:rgb(0%,0%,0%);fill-opacity:1;">
  <use xlink:href="#ytNVZoXD12-3" x="561.34375" y="143.277344"/>
</g>
<g style="fill:rgb(0%,0%,0%);fill-opacity:1;">
  <use xlink:href="#ytNVZoXD14-2" x="568.292969" y="143.277344"/>
</g>
<g style="fill:rgb(0%,0%,0%);fill-opacity:1;">
  <use xlink:href="#ytNVZoXD13-6" x="575.679688" y="143.277344"/>
</g>
<path style="fill:none;stroke-width:1.5;stroke-linecap:butt;stroke-linejoin:miter;stroke:rgb(100%,0%,0%);stroke-opacity:1;stroke-miterlimit:10;" d="M 623.854167 185.5 L 658.848958 185.5 " transform="matrix(0.75,0,0,0.75,0,0)"/>
<path style=" stroke:none;fill-rule:nonzero;fill:rgb(0%,0%,100%);fill-opacity:1;" d="M 483.878906 136.046875 L 481.660156 139.046875 L 484.003906 142.203125 L 482.800781 142.203125 L 481.019531 139.78125 L 479.222656 142.203125 L 478.035156 142.203125 L 480.425781 138.984375 L 478.238281 136.046875 L 479.425781 136.046875 L 481.050781 138.25 L 482.691406 136.046875 Z M 484.363281 142.203125 "/>
<g style="fill:rgb(0%,0%,0%);fill-opacity:1;">
  <use xlink:href="#ytNVZoXD12-4" x="496.710938" y="177.027344"/>
</g>
<g style="fill:rgb(0%,0%,0%);fill-opacity:1;">
  <use xlink:href="#ytNVZoXD13-7" x="503.945312" y="177.027344"/>
</g>
<g style="fill:rgb(0%,0%,0%);fill-opacity:1;">
  <use xlink:href="#ytNVZoXD12-5" x="511.289062" y="177.027344"/>
</g>
<g style="fill:rgb(0%,0%,0%);fill-opacity:1;">
  <use xlink:href="#ytNVZoXD12-6" x="514.625" y="177.027344"/>
</g>
<g style="fill:rgb(0%,0%,0%);fill-opacity:1;">
  <use xlink:href="#ytNVZoXD12-7" x="521.726562" y="177.027344"/>
</g>
<g style="fill:rgb(0%,0%,0%);fill-opacity:1;">
  <use xlink:href="#ytNVZoXD13-8" x="525.539062" y="177.027344"/>
</g>
<g style="fill:rgb(0%,0%,0%);fill-opacity:1;">
  <use xlink:href="#ytNVZoXD14-3" x="534.894531" y="177.027344"/>
</g>
<g style="fill:rgb(0%,0%,0%);fill-opacity:1;">
  <use xlink:href="#ytNVZoXD13-9" x="538.710938" y="177.027344"/>
</g>
<g style="fill:rgb(0%,0%,0%);fill-opacity:1;">
  <use xlink:href="#ytNVZoXD13-1" x="545.398438" y="177.027344"/>
</g>
<g style="fill:rgb(0%,0%,0%);fill-opacity:1;">
  <use xlink:href="#ytNVZoXD13-2" x="548.730469" y="177.027344"/>
</g>
<g style="fill:rgb(0%,0%,0%);fill-opacity:1;">
  <use xlink:href="#ytNVZoXD13-3" x="556.335938" y="177.027344"/>
</g>
<path style="fill-rule:nonzero;fill:rgb(100%,0%,0%);fill-opacity:1;stroke-width:1;stroke-linecap:butt;stroke-linejoin:miter;stroke:rgb(0%,0%,100%);stroke-opacity:1;stroke-miterlimit:10;" d="M 623.854167 248 L 658.848958 248 L 658.848958 213 L 623.854167 213 Z M 623.854167 248 " transform="matrix(0.75,0,0,0.75,0,0)"/>
<path style="fill:none;stroke-width:1.5;stroke-linecap:butt;stroke-linejoin:miter;stroke:rgb(0%,0%,0%);stroke-opacity:1;stroke-dasharray:4.5,4.5;stroke-miterlimit:10;" d="M 623.854167 230.5 L 658.848958 230.5 " transform="matrix(0.75,0,0,0.75,0,0)"/>
<g style="fill:rgb(0%,0%,0%);fill-opacity:1;">
  <use xlink:href="#ytNVZoXD15-1" x="496.710938" y="210.78125"/>
</g>
<g style="fill:rgb(0%,0%,0%);fill-opacity:1;">
  <use xlink:href="#ytNVZoXD0-17" x="503.398438" y="210.78125"/>
</g>
<g style="fill:rgb(0%,0%,0%);fill-opacity:1;">
  <use xlink:href="#ytNVZoXD0-18" x="506.730469" y="210.78125"/>
</g>
<g style="fill:rgb(0%,0%,0%);fill-opacity:1;">
  <use xlink:href="#ytNVZoXD0-4" x="514.335938" y="210.78125"/>
</g>
<path style="fill:none;stroke-width:1.5;stroke-linecap:butt;stroke-linejoin:miter;stroke:rgb(0%,50.196081%,0%);stroke-opacity:1;stroke-miterlimit:10;" d="M 623.854167 293 L 623.854167 258 L 658.848958 293 L 658.848958 258 " transform="matrix(0.75,0,0,0.75,0,0)"/>
<g style="fill:rgb(0%,0%,0%);fill-opacity:1;">
  <use xlink:href="#ytNVZoXD15-2" x="496.710938" y="244.53125"/>
</g>
<g style="fill:rgb(0%,0%,0%);fill-opacity:1;">
  <use xlink:href="#ytNVZoXD16-1" x="507.0625" y="244.53125"/>
</g>
<g style="fill:rgb(0%,0%,0%);fill-opacity:1;">
  <use xlink:href="#ytNVZoXD0-7" x="514.417969" y="244.53125"/>
</g>
<g style="fill:rgb(0%,0%,0%);fill-opacity:1;">
  <use xlink:href="#ytNVZoXD0-3" x="519.351562" y="244.53125"/>
</g>
<g style="fill:rgb(0%,0%,0%);fill-opacity:1;">
  <use xlink:href="#ytNVZoXD15-3" x="526.300781" y="244.53125"/>
</g>
<g style="fill:rgb(0%,0%,0%);fill-opacity:1;">
  <use xlink:href="#ytNVZoXD0-7" x="533.683594" y="244.53125"/>
</g>
<path style=" stroke:none;fill-rule:nonzero;fill:rgb(0%,0%,100%);fill-opacity:1;" d="M 470.113281 245.0625 L 476.003906 245.0625 L 476.003906 246.078125 L 475.238281 246.078125 L 475.238281 249.859375 C 475.238281 250.121094 475.277344 250.308594 475.363281 250.421875 C 475.457031 250.539062 475.601562 250.59375 475.800781 250.59375 C 475.863281 250.59375 475.929688 250.59375 476.003906 250.59375 C 476.085938 250.585938 476.136719 250.574219 476.160156 250.5625 L 476.160156 251.296875 C 476.035156 251.335938 475.902344 251.367188 475.769531 251.390625 C 475.632812 251.421875 475.496094 251.4375 475.363281 251.4375 C 474.925781 251.4375 474.621094 251.316406 474.457031 251.078125 C 474.289062 250.839844 474.207031 250.398438 474.207031 249.75 L 474.207031 246.078125 L 471.925781 246.078125 L 471.925781 251.21875 L 470.894531 251.21875 L 470.894531 246.078125 L 470.113281 246.078125 Z M 476.480469 251.21875 "/>
<path style=" stroke:none;fill-rule:nonzero;fill:rgb(0%,0%,100%);fill-opacity:1;" d="M 477.988281 229.3125 L 483.878906 229.3125 L 483.878906 230.328125 L 483.113281 230.328125 L 483.113281 234.109375 C 483.113281 234.371094 483.152344 234.558594 483.238281 234.671875 C 483.332031 234.789062 483.476562 234.84375 483.675781 234.84375 C 483.738281 234.84375 483.804688 234.84375 483.878906 234.84375 C 483.960938 234.835938 484.011719 234.824219 484.035156 234.8125 L 484.035156 235.546875 C 483.910156 235.585938 483.777344 235.617188 483.644531 235.640625 C 483.507812 235.671875 483.371094 235.6875 483.238281 235.6875 C 482.800781 235.6875 482.496094 235.566406 482.332031 235.328125 C 482.164062 235.089844 482.082031 234.648438 482.082031 234 L 482.082031 230.328125 L 479.800781 230.328125 L 479.800781 235.46875 L 478.769531 235.46875 L 478.769531 230.328125 L 477.988281 230.328125 Z M 484.355469 235.46875 "/>
<path style=" stroke:none;fill-rule:nonzero;fill:rgb(0%,0%,100%);fill-opacity:1;" d="M 485.863281 245.0625 L 491.753906 245.0625 L 491.753906 246.078125 L 490.988281 246.078125 L 490.988281 249.859375 C 490.988281 250.121094 491.027344 250.308594 491.113281 250.421875 C 491.207031 250.539062 491.351562 250.59375 491.550781 250.59375 C 491.613281 250.59375 491.679688 250.59375 491.753906 250.59375 C 491.835938 250.585938 491.886719 250.574219 491.910156 250.5625 L 491.910156 251.296875 C 491.785156 251.335938 491.652344 251.367188 491.519531 251.390625 C 491.382812 251.421875 491.246094 251.4375 491.113281 251.4375 C 490.675781 251.4375 490.371094 251.316406 490.207031 251.078125 C 490.039062 250.839844 489.957031 250.398438 489.957031 249.75 L 489.957031 246.078125 L 487.675781 246.078125 L 487.675781 251.21875 L 486.644531 251.21875 L 486.644531 246.078125 L 485.863281 246.078125 Z M 492.230469 251.21875 "/>
<g style="fill:rgb(0%,0%,0%);fill-opacity:1;">
  <use xlink:href="#ytNVZoXD17-1" x="496.710938" y="278.28125"/>
</g>
<g style="fill:rgb(0%,0%,0%);fill-opacity:1;">
  <use xlink:href="#ytNVZoXD18-1" x="503.945312" y="278.28125"/>
</g>
<g style="fill:rgb(0%,0%,0%);fill-opacity:1;">
  <use xlink:href="#ytNVZoXD17-2" x="511.289062" y="278.28125"/>
</g>
<g style="fill:rgb(0%,0%,0%);fill-opacity:1;">
  <use xlink:href="#ytNVZoXD17-3" x="514.625" y="278.28125"/>
</g>
<path style="fill-rule:nonzero;fill:rgb(0%,50.196081%,0%);fill-opacity:1;stroke-width:2;stroke-linecap:butt;stroke-linejoin:miter;stroke:rgb(0%,0%,0%);stroke-opacity:1;stroke-miterlimit:10;" d="M 623.854167 383 L 658.848958 383 L 623.854167 348 Z M 623.854167 383 " transform="matrix(0.75,0,0,0.75,0,0)"/>
<path style="fill:none;stroke-width:1;stroke-linecap:butt;stroke-linejoin:miter;stroke:rgb(0%,0%,0%);stroke-opacity:1;stroke-miterlimit:10;" d="M 66.5 536 L 590.5 536 " transform="matrix(0.75,0,0,0.75,0,0)"/>
<path style="fill:none;stroke-width:1;stroke-linecap:butt;stroke-linejoin:miter;stroke:rgb(0%,0%,0%);stroke-opacity:1;stroke-miterlimit:10;" d="M 67 536.5 L 67 15.5 " transform="matrix(0.75,0,0,0.75,0,0)"/>
<path style="fill:none;stroke-width:1;stroke-linecap:butt;stroke-linejoin:miter;stroke:rgb(0%,0%,0%);stroke-opacity:1;stroke-miterlimit:10;" d="M 66.5 16 L 590.5 16 " transform="matrix(0.75,0,0,0.75,0,0)"/>
<path style="fill:none;stroke-width:1;stroke-linecap:butt;stroke-linejoin:miter;stroke:rgb(0%,0%,0%);stroke-opacity:1;stroke-miterlimit:10;" d="M 590 536.5 L 590 15.5 " transform="matrix(0.75,0,0,0.75,0,0)"/>
</g>
</svg>
